<svg width="29" height="28" viewBox="0 0 29 28" fill="none" xmlns="http://www.w3.org/2000/svg"><path d="M18.623 12.81c.924-.693 1.502-1.848 1.502-3.12 0-1.27-.578-2.426-1.502-3.12M21.512 15.583c1.617-1.502 2.657-3.582 2.657-5.893s-1.04-4.507-2.657-5.893M24.4 18.356c2.311-2.195 3.698-5.2 3.698-8.666 0-3.467-1.387-6.471-3.698-8.667M10.303 12.81C9.377 12.003 8.8 10.963 8.8 9.69c0-1.27.578-2.426 1.502-3.12M7.298 15.583c-1.502-1.502-2.542-3.582-2.542-5.893s1.04-4.507 2.658-5.893M4.409 18.356C2.098 16.16.711 13.156.711 9.689c0-3.351 1.387-6.471 3.698-8.667M14.462 11.075v16.063M14.462 11.076c.81 0 1.503-.694 1.503-1.502a1.53 1.53 0 00-1.503-1.503" stroke="#1B4EA9" stroke-width="1.2" stroke-miterlimit="10" stroke-linecap="round"/><path d="M14.463 11.076c-.81 0-1.503-.694-1.503-1.502 0-.81.694-1.503 1.503-1.503" stroke="#1B4EA9" stroke-width="1.2" stroke-miterlimit="10" stroke-linecap="round"/></svg>
