<svg width="30" height="30" viewBox="0 0 30 30" fill="none" xmlns="http://www.w3.org/2000/svg"><path d="M.937 2.953l.62-.225-.28-.597 1.79-1.79.598.28L3.89 0h2.532l.225.62.596-.28 1.791 1.79-.28.597.62.226v2.532l-.618.224.279.597-1.79 1.79-.597-.279-.226.62H3.89l-.224-.619-.597.28-1.79-1.791.279-.597-.62-.225V2.953zm.938 1.875l.386.14.207.095.2.483-.263.562.862.861.561-.263.506.21.213.584h1.218l.14-.386L6 6.907l.484-.2.561.263.862-.862-.263-.561.209-.507.584-.212V3.61l-.385-.14-.208-.095-.2-.484.263-.561-.862-.862-.561.263-.507-.209-.212-.585H4.547l-.14.386-.095.207-.483.2-.562-.262-.861.861.262.562-.209.506-.584.213v1.218z" fill="#1B4EA9"/><path d="M5.156 1.875A2.346 2.346 0 017.5 4.219a2.346 2.346 0 01-2.344 2.343A2.346 2.346 0 012.812 4.22a2.346 2.346 0 012.344-2.344zm0 3.75c.775 0 1.406-.63 1.406-1.406 0-.776-.63-1.407-1.406-1.407-.775 0-1.406.631-1.406 1.407 0 .775.63 1.406 1.406 1.406zM23.906 9.375v-.84a.903.903 0 00-.404-.768 4.203 4.203 0 01-1.94-3.548c0-1.2.514-2.348 1.41-3.147.895-.8 2.1-1.18 3.299-1.045 1.899.215 3.452 1.745 3.694 3.64a4.2 4.2 0 01-1.915 4.106c-.243.155-.394.455-.394.782v.82c0 1.034-.84 1.875-1.875 1.875a1.877 1.877 0 01-1.875-1.875zm3.64-2.392a3.269 3.269 0 001.489-3.198A3.292 3.292 0 0025.777.937c-.808 0-1.571.29-2.18.833A3.287 3.287 0 0022.5 4.22a3.27 3.27 0 001.509 2.76c.496.318.799.859.828 1.459h.475v-2.9a1.404 1.404 0 01-.937-1.32c0-.775.63-1.405 1.406-1.405.775 0 1.406.63 1.406 1.406 0 .61-.393 1.126-.937 1.32v2.899h.476c.034-.606.333-1.144.82-1.455zM26.25 4.219a.469.469 0 10-.938 0 .469.469 0 00.938 0zm.469 5.156h-1.875a.938.938 0 001.875 0zM10.312 25.313h.093l1.75-7.876-1.843-2.764V11.25h2.813v.938h.937v-.938h2.813v.938h.937v-.938h2.813v3.423l-1.843 2.764 1.75 7.875h.093c1.034 0 1.875.841 1.875 1.875v1.875H8.437v-1.875c0-1.034.841-1.875 1.875-1.875zm7.718-8.438L19.28 15h-7.623l1.25 1.875h5.123zm.72-4.688v.938h-2.813v-.938H15v.938h-2.813v-.938h-.937v1.876h8.437v-1.876h-.937zm-.845 5.626h-4.873l-1.666 7.5h8.206l-1.667-7.5zm-8.53 10.312h12.187v-.938a.938.938 0 00-.937-.937H10.312a.938.938 0 00-.937.938v.937z" fill="#1B4EA9"/><path d="M18.144 23.23l-.204-.915-.916.205.204.915.916-.205zM17.742 21.401l-.204-.916-.916.204.204.916.916-.204zM17.335 19.567l-.204-.915-.915.204.203.915.916-.204zM5.625 11.25h-.938v.938h.938v-.938zM5.625 9.375h-.938v.938h.938v-.938zM5.625 16.406c0 .259.21.469.469.469h3.28v.938h-3.28c-.776 0-1.407-.631-1.407-1.407v-3.281h.938v3.281zM26.25 14.063h-.938V15h.938v-.938zM26.25 12.188h-.938v.937h.938v-.938zM21.562 16.875h3.282c.258 0 .468-.21.468-.469v-.468h.938v.468c0 .776-.631 1.407-1.406 1.407h-3.282v-.938z" fill="#1B4EA9"/></svg>
