<svg width="36" height="31" viewBox="0 0 36 31" fill="none" xmlns="http://www.w3.org/2000/svg"><path d="M17.578 24.553c4.914 0 8.898-4.036 8.898-9.014s-3.984-9.013-8.898-9.013S8.68 10.56 8.68 15.539s3.984 9.014 8.898 9.014z" stroke="#1B4EA9" stroke-width="1.2" stroke-miterlimit="10" stroke-linecap="round" stroke-linejoin="round"/><path d="M16.769 6.641c-2.196 2.08-3.582 5.316-3.582 9.013 0 3.698 1.386 6.934 3.582 9.014M18.387 6.641c2.195 2.08 3.582 5.316 3.582 9.013 0 3.698-1.387 6.934-3.582 9.014M8.68 15.54h17.795M9.604 11.841h16.063M9.836 19.815h15.6M17.578 24.552V6.526" stroke="#1B4EA9" stroke-width="1.2" stroke-miterlimit="10" stroke-linecap="round" stroke-linejoin="round"/><path d="M20.813 27.442c5.2-1.386 9.13-6.24 9.13-11.902 0-4.853-2.774-9.013-6.819-10.978" stroke="#1B4EA9" stroke-width="1.2" stroke-miterlimit="10" stroke-linecap="round" stroke-linejoin="round"/><path d="M27.516 2.251c1.849 1.734 2.08 4.507.115 5.085-.924 0-1.733-.694-1.733-1.85 0-.924.693-2.195 1.618-3.235zM19.427.98c2.542-.116 4.738 1.617 3.698 3.466-.694.693-1.734.809-2.543 0-.693-.693-1.155-1.964-1.155-3.467zM33.178 8.49c.347 2.542-1.271 4.737-3.235 3.928-.694-.462-.925-1.617-.116-2.426.578-.694 1.849-1.271 3.351-1.503zM34.449 16.117c-.694 2.542-3.005 3.929-4.507 2.542-.462-.809-.231-1.849.809-2.427.809-.462 2.195-.462 3.698-.115zM32.485 23.744c-1.734 1.849-4.507 2.08-5.085.115 0-.924.694-1.733 1.849-1.733.925 0 2.196.578 3.236 1.618zM27.053 29.52c-2.426.81-4.969-.23-4.622-2.31.462-.925 1.387-1.272 2.427-.694a6.19 6.19 0 012.195 3.005zM14.458 27.442c-5.316-1.386-9.13-6.24-9.13-11.902 0-4.853 2.774-9.013 6.819-10.978" stroke="#1B4EA9" stroke-width="1.2" stroke-miterlimit="10" stroke-linecap="round" stroke-linejoin="round"/><path d="M7.64 2.251c1.04 1.04 1.618 2.311 1.618 3.236 0 1.155-.81 1.849-1.734 1.849-1.964-.578-1.733-3.351.116-5.085zM15.844.98c-.115 1.502-.577 2.773-1.155 3.466-.81.809-1.85.809-2.543 0-1.04-1.849 1.156-3.582 3.698-3.467zM2.093 8.49c1.503.115 2.774.693 3.351 1.386.694.925.578 2.08-.23 2.658-1.85.809-3.467-1.387-3.12-4.045zM.822 16.117c1.387-.347 2.774-.347 3.582.115 1.04.578 1.272 1.618.81 2.427-1.387 1.387-3.698 0-4.392-2.542zM2.787 23.744c1.04-1.04 2.311-1.618 3.235-1.618 1.156 0 1.85.809 1.85 1.733-.578 1.965-3.352 1.734-5.085-.115zM8.218 29.522c.462-1.386 1.27-2.426 2.08-2.889 1.04-.577 2.08-.23 2.426.694.463 2.08-2.08 3.12-4.506 2.195z" stroke="#1B4EA9" stroke-width="1.2" stroke-miterlimit="10" stroke-linecap="round" stroke-linejoin="round"/></svg>
