<svg width="35" height="21" viewBox="0 0 35 21" fill="none" xmlns="http://www.w3.org/2000/svg"><path d="M34.43 19.87h-.483a.438.438 0 00-.459.441.443.443 0 00.459.442h.482a.44.44 0 00.423-.615.442.442 0 00-.423-.268zM24.786 7.025a.439.439 0 00.44-.44V3.647a.443.443 0 00-.44-.441.439.439 0 00-.44.441v2.94a.442.442 0 00.44.44zM5.898 5.436v.553a.442.442 0 00.44.441.439.439 0 00.44-.441v-.553a.442.442 0 00-.44-.442.439.439 0 00-.44.442zM11.17 5.437v.553a.443.443 0 00.44.423.439.439 0 00.439-.423v-.553a.443.443 0 00-.44-.422.439.439 0 00-.44.422zM16.44 5.437v.553a.443.443 0 00.44.423.439.439 0 00.44-.423v-.553a.443.443 0 00-.44-.422.439.439 0 00-.44.422zM21.711 5.437v.553a.443.443 0 00.44.423.439.439 0 00.44-.423v-.553a.443.443 0 00-.44-.422.439.439 0 00-.44.422zM27.861 5.99v-.553a.443.443 0 00-.44-.422.439.439 0 00-.439.422v.553a.443.443 0 00.44.423.439.439 0 00.44-.423z" fill="#1B4EA9"/><path d="M1.25 4.088h1.155v1.958a.443.443 0 00.44.46.438.438 0 00.439-.46V4.088h.842a.439.439 0 00.42-.442.442.442 0 00-.42-.44H1.69V2.06h14.1a.439.439 0 00.422-.441.443.443 0 00-.421-.441H1.25a.437.437 0 00-.44.441v2.027a.442.442 0 00.44.442zM18.24 2.06h.035a.438.438 0 00.458-.44.445.445 0 00-.285-.414.438.438 0 00-.174-.028h-.033a.44.44 0 00-.421.441.443.443 0 00.42.441z" fill="#1B4EA9"/><path d="M5.962 3.205a.438.438 0 00-.458.441.443.443 0 00.458.442h2.573v2.498a.443.443 0 00.44.46.438.438 0 00.439-.46V4.088h4.391v2.498a.443.443 0 00.44.46.438.438 0 00.439-.46V4.088h4.39v2.498a.444.444 0 00.443.443.441.441 0 00.442-.443V4.088h3.465a.439.439 0 00.439-.432.443.443 0 00-.052-.218l-1.088-2.029a.441.441 0 00-.387-.231H20.81a.44.44 0 00-.421.44.443.443 0 00.42.442h1.265l.62 1.145H5.962z" fill="#1B4EA9"/><mask id="a" maskUnits="userSpaceOnUse" x="-.755" y=".179" width="34" height="21" fill="#000"><path fill="#fff" d="M-.755.179h34v21h-34z"/><path d="M32.51 1.179h-4.57a.438.438 0 00-.41.283l-.772 2.027a.442.442 0 00.41.6h1.688a.44.44 0 00.42-.442.443.443 0 00-.42-.44H27.81l.436-1.146h3.827v1.145h-1.159a.438.438 0 00-.439.44v3.887H2.845a.439.439 0 00-.44.442V19.87H.703a.436.436 0 00-.423.268.443.443 0 00.423.614h31.433a.44.44 0 00.42-.441.443.443 0 00-.42-.441h-.784v-5.627c0-.017 0-.034-.005-.05a.442.442 0 00-.435-.49h-1.45v-2.33c0-.544-.215-1.065-.598-1.449a2.036 2.036 0 00-2.885 0 2.053 2.053 0 00-.598 1.449v2.329h-1.19v-2.33c0-.235-.04-.47-.12-.691a.44.44 0 10-.827.298c.046.126.069.26.069.394v2.329H20.99v-2.33a1.17 1.17 0 011.161-1.166h.063a.438.438 0 00.45-.418.442.442 0 00-.403-.463h-.11c-.54 0-1.06.217-1.442.6a2.055 2.055 0 00-.598 1.448v2.33h-1.19v-2.33c0-.544-.216-1.065-.598-1.449a2.036 2.036 0 00-2.886 0 2.053 2.053 0 00-.597 1.449v2.329h-4.392v-2.33a1.172 1.172 0 01.71-1.105 1.157 1.157 0 011.533.65c.057.145.084.3.08.456v1.257a.442.442 0 00.44.441.439.439 0 00.439-.441v-1.258c0-.543-.215-1.064-.598-1.448a2.036 2.036 0 00-2.885 0 2.052 2.052 0 00-.598 1.449v2.329H8.383v-2.33c0-.543-.215-1.064-.598-1.448a2.036 2.036 0 00-2.885 0 2.053 2.053 0 00-.598 1.449v2.329H3.284V8.415h5.25v.807a.442.442 0 00.44.423.439.439 0 00.44-.423v-.807h4.391v.807a.443.443 0 00.44.423.439.439 0 00.439-.423v-.807h4.39v.807a.442.442 0 00.44.423.439.439 0 00.44-.423v-.807h4.391v.807a.442.442 0 00.44.442.439.439 0 00.44-.442v-.807h5.25v3.522a.443.443 0 00.44.422.439.439 0 00.439-.422V4.088h1.154a.438.438 0 00.44-.441V1.62a.442.442 0 00-.438-.441zm-19.74 18.69h-2.322v-2.328a1.172 1.172 0 01.71-1.105 1.158 1.158 0 011.533.65c.057.145.084.3.08.455v2.329zm5.272 0h-2.324v-2.328a1.16 1.16 0 112.323 0v2.329zm10.541 0h-2.322v-2.328a1.17 1.17 0 01.71-1.105 1.158 1.158 0 011.533.65c.056.145.083.3.08.455v2.329zm-2.322-8.496a1.17 1.17 0 01.71-1.106 1.157 1.157 0 011.533.65c.056.145.083.3.08.456v2.329H26.26v-2.33zm-21.084 0a1.16 1.16 0 112.323 0v2.329H5.177v-2.33zm3.358 3.211v.8a.444.444 0 00.44.46.438.438 0 00.438-.46v-.803h4.392v.803a.445.445 0 00.267.425.438.438 0 00.612-.425v-.803h2.026a.44.44 0 00.42-.441.442.442 0 00-.42-.441h-.992v-2.326a1.16 1.16 0 112.323 0v2.77a.442.442 0 00.44.441h.594v.8a.445.445 0 00.442.444.441.441 0 00.442-.444v-.803h4.392v.803a.442.442 0 00.44.441.439.439 0 00.44-.441v-.803h5.25v5.286h-1.02V17.54c0-.543-.214-1.064-.597-1.448a2.036 2.036 0 00-2.885 0 2.053 2.053 0 00-.598 1.448v2.329H20.99V17.54a1.16 1.16 0 112.323 0v1.205a.442.442 0 00.612.425.44.44 0 00.267-.425V17.54c0-.543-.215-1.064-.598-1.448a2.036 2.036 0 00-2.886 0 2.053 2.053 0 00-.597 1.448v2.329h-1.19V17.54c0-.543-.216-1.064-.598-1.448a2.037 2.037 0 00-2.886 0 2.053 2.053 0 00-.597 1.448v2.329h-1.19V17.54c0-.543-.215-1.064-.598-1.448a2.036 2.036 0 00-2.885 0 2.053 2.053 0 00-.598 1.448v2.329H8.383V17.54c0-.543-.215-1.064-.598-1.448a2.036 2.036 0 00-2.885 0 2.053 2.053 0 00-.598 1.448v1.305a.443.443 0 00.44.46.44.44 0 00.439-.46V17.54a1.16 1.16 0 112.323 0v2.329h-4.22v-5.286h5.25z"/></mask><path d="M32.51 1.179h-4.57a.438.438 0 00-.41.283l-.772 2.027a.442.442 0 00.41.6h1.688a.44.44 0 00.42-.442.443.443 0 00-.42-.44H27.81l.436-1.146h3.827v1.145h-1.159a.438.438 0 00-.439.44v3.887H2.845a.439.439 0 00-.44.442V19.87H.703a.436.436 0 00-.423.268.443.443 0 00.423.614h31.433a.44.44 0 00.42-.441.443.443 0 00-.42-.441h-.784v-5.627c0-.017 0-.034-.005-.05a.442.442 0 00-.435-.49h-1.45v-2.33c0-.544-.215-1.065-.598-1.449a2.036 2.036 0 00-2.885 0 2.053 2.053 0 00-.598 1.449v2.329h-1.19v-2.33c0-.235-.04-.47-.12-.691a.44.44 0 10-.827.298c.046.126.069.26.069.394v2.329H20.99v-2.33a1.17 1.17 0 011.161-1.166h.063a.438.438 0 00.45-.418.442.442 0 00-.403-.463h-.11c-.54 0-1.06.217-1.442.6a2.055 2.055 0 00-.598 1.448v2.33h-1.19v-2.33c0-.544-.216-1.065-.598-1.449a2.036 2.036 0 00-2.886 0 2.053 2.053 0 00-.597 1.449v2.329h-4.392v-2.33a1.172 1.172 0 01.71-1.105 1.157 1.157 0 011.533.65c.057.145.084.3.08.456v1.257a.442.442 0 00.44.441.439.439 0 00.439-.441v-1.258c0-.543-.215-1.064-.598-1.448a2.036 2.036 0 00-2.885 0 2.052 2.052 0 00-.598 1.449v2.329H8.383v-2.33c0-.543-.215-1.064-.598-1.448a2.036 2.036 0 00-2.885 0 2.053 2.053 0 00-.598 1.449v2.329H3.284V8.415h5.25v.807a.442.442 0 00.44.423.439.439 0 00.44-.423v-.807h4.391v.807a.443.443 0 00.44.423.439.439 0 00.439-.423v-.807h4.39v.807a.442.442 0 00.44.423.439.439 0 00.44-.423v-.807h4.391v.807a.442.442 0 00.44.442.439.439 0 00.44-.442v-.807h5.25v3.522a.443.443 0 00.44.422.439.439 0 00.439-.422V4.088h1.154a.438.438 0 00.44-.441V1.62a.442.442 0 00-.438-.441zm-19.74 18.69h-2.322v-2.328a1.172 1.172 0 01.71-1.105 1.158 1.158 0 011.533.65c.057.145.084.3.08.455v2.329zm5.272 0h-2.324v-2.328a1.16 1.16 0 112.323 0v2.329zm10.541 0h-2.322v-2.328a1.17 1.17 0 01.71-1.105 1.158 1.158 0 011.533.65c.056.145.083.3.08.455v2.329zm-2.322-8.496a1.17 1.17 0 01.71-1.106 1.157 1.157 0 011.533.65c.056.145.083.3.08.456v2.329H26.26v-2.33zm-21.084 0a1.16 1.16 0 112.323 0v2.329H5.177v-2.33zm3.358 3.211v.8a.444.444 0 00.44.46.438.438 0 00.438-.46v-.803h4.392v.803a.445.445 0 00.267.425.438.438 0 00.612-.425v-.803h2.026a.44.44 0 00.42-.441.442.442 0 00-.42-.441h-.992v-2.326a1.16 1.16 0 112.323 0v2.77a.442.442 0 00.44.441h.594v.8a.445.445 0 00.442.444.441.441 0 00.442-.444v-.803h4.392v.803a.442.442 0 00.44.441.439.439 0 00.44-.441v-.803h5.25v5.286h-1.02V17.54c0-.543-.214-1.064-.597-1.448a2.036 2.036 0 00-2.885 0 2.053 2.053 0 00-.598 1.448v2.329H20.99V17.54a1.16 1.16 0 112.323 0v1.205a.442.442 0 00.612.425.44.44 0 00.267-.425V17.54c0-.543-.215-1.064-.598-1.448a2.036 2.036 0 00-2.886 0 2.053 2.053 0 00-.597 1.448v2.329h-1.19V17.54c0-.543-.216-1.064-.598-1.448a2.037 2.037 0 00-2.886 0 2.053 2.053 0 00-.597 1.448v2.329h-1.19V17.54c0-.543-.215-1.064-.598-1.448a2.036 2.036 0 00-2.885 0 2.053 2.053 0 00-.598 1.448v2.329H8.383V17.54c0-.543-.215-1.064-.598-1.448a2.036 2.036 0 00-2.885 0 2.053 2.053 0 00-.598 1.448v1.305a.443.443 0 00.44.46.44.44 0 00.439-.46V17.54a1.16 1.16 0 112.323 0v2.329h-4.22v-5.286h5.25z" fill="#1B4EA9"/><path d="M32.51 1.179h-4.57a.438.438 0 00-.41.283l-.772 2.027a.442.442 0 00.41.6h1.688a.44.44 0 00.42-.442.443.443 0 00-.42-.44H27.81l.436-1.146h3.827v1.145h-1.159a.438.438 0 00-.439.44v3.887H2.845a.439.439 0 00-.44.442V19.87H.703a.436.436 0 00-.423.268.443.443 0 00.423.614h31.433a.44.44 0 00.42-.441.443.443 0 00-.42-.441h-.784v-5.627c0-.017 0-.034-.005-.05a.442.442 0 00-.435-.49h-1.45v-2.33c0-.544-.215-1.065-.598-1.449a2.036 2.036 0 00-2.885 0 2.053 2.053 0 00-.598 1.449v2.329h-1.19v-2.33c0-.235-.04-.47-.12-.691a.44.44 0 10-.827.298c.046.126.069.26.069.394v2.329H20.99v-2.33a1.17 1.17 0 011.161-1.166h.063a.438.438 0 00.45-.418.442.442 0 00-.403-.463h-.11c-.54 0-1.06.217-1.442.6a2.055 2.055 0 00-.598 1.448v2.33h-1.19v-2.33c0-.544-.216-1.065-.598-1.449a2.036 2.036 0 00-2.886 0 2.053 2.053 0 00-.597 1.449v2.329h-4.392v-2.33a1.172 1.172 0 01.71-1.105 1.157 1.157 0 011.533.65c.057.145.084.3.08.456v1.257a.442.442 0 00.44.441.439.439 0 00.439-.441v-1.258c0-.543-.215-1.064-.598-1.448a2.036 2.036 0 00-2.885 0 2.052 2.052 0 00-.598 1.449v2.329H8.383v-2.33c0-.543-.215-1.064-.598-1.448a2.036 2.036 0 00-2.885 0 2.053 2.053 0 00-.598 1.449v2.329H3.284V8.415h5.25v.807a.442.442 0 00.44.423.439.439 0 00.44-.423v-.807h4.391v.807a.443.443 0 00.44.423.439.439 0 00.439-.423v-.807h4.39v.807a.442.442 0 00.44.423.439.439 0 00.44-.423v-.807h4.391v.807a.442.442 0 00.44.442.439.439 0 00.44-.442v-.807h5.25v3.522a.443.443 0 00.44.422.439.439 0 00.439-.422V4.088h1.154a.438.438 0 00.44-.441V1.62a.442.442 0 00-.438-.441v0zm-19.74 18.69h-2.322v-2.328a1.172 1.172 0 01.71-1.105 1.158 1.158 0 011.533.65c.057.145.084.3.08.455v2.329zm5.272 0h-2.324v-2.328a1.16 1.16 0 112.323 0v2.329zm10.541 0h-2.322v-2.328a1.17 1.17 0 01.71-1.105 1.158 1.158 0 011.533.65c.056.145.083.3.08.455v2.329zm-2.322-8.496a1.17 1.17 0 01.71-1.106 1.157 1.157 0 011.533.65c.056.145.083.3.08.456v2.329H26.26v-2.33zm-21.084 0a1.16 1.16 0 112.323 0v2.329H5.177v-2.33zm3.358 3.211v.8a.444.444 0 00.44.46.438.438 0 00.438-.46v-.803h4.392v.803a.445.445 0 00.267.425.438.438 0 00.612-.425v-.803h2.026a.44.44 0 00.42-.441.442.442 0 00-.42-.441h-.992v-2.326a1.16 1.16 0 112.323 0v2.77a.442.442 0 00.44.441h.594v.8a.445.445 0 00.442.444.441.441 0 00.442-.444v-.803h4.392v.803a.442.442 0 00.44.441.439.439 0 00.44-.441v-.803h5.25v5.286h-1.02V17.54c0-.543-.214-1.064-.597-1.448a2.036 2.036 0 00-2.885 0 2.053 2.053 0 00-.598 1.448v2.329H20.99V17.54a1.16 1.16 0 112.323 0v1.205a.442.442 0 00.612.425.44.44 0 00.267-.425V17.54c0-.543-.215-1.064-.598-1.448a2.036 2.036 0 00-2.886 0 2.053 2.053 0 00-.597 1.448v2.329h-1.19V17.54c0-.543-.216-1.064-.598-1.448a2.037 2.037 0 00-2.886 0 2.053 2.053 0 00-.597 1.448v2.329h-1.19V17.54c0-.543-.215-1.064-.598-1.448a2.036 2.036 0 00-2.885 0 2.053 2.053 0 00-.598 1.448v2.329H8.383V17.54c0-.543-.215-1.064-.598-1.448a2.036 2.036 0 00-2.885 0 2.053 2.053 0 00-.598 1.448v1.305a.443.443 0 00.44.46.44.44 0 00.439-.46V17.54a1.16 1.16 0 112.323 0v2.329h-4.22v-5.286h5.25z" stroke="#1B4EA9" stroke-width=".4" mask="url(#a)"/></svg>
