<svg width="32" height="27" viewBox="0 0 32 27" fill="none" xmlns="http://www.w3.org/2000/svg"><path d="M31.105 25.49H.895M.895 25.49V6.324M11.592 3.197l7.231-2.151M.895 6.326L7.63 4.37M.895 8.966L18.823 4.37M18.823 1.046V25.49M18.823 1.046l2.278.586M21.101 1.632V25.49M31.105 25.49V11.9M31.105 11.899L21.1 7.401M27.54 10.335V7.988M25.36 9.356V6.618M9.513 4.077a.295.295 0 00.297-.294.295.295 0 00-.297-.293.295.295 0 00-.297.293c0 .162.133.294.297.294zM9.908 14.44l-.693-2.053c-.297-.88-1.288-1.466-2.278-1.075h-.198c-.892.293-1.486 1.27-1.09 2.249l1.585 4.79c.1.392.396.685.693.88M6.342 15.907l3.368-1.075" stroke="#1B4EA9" stroke-width="1.2" stroke-miterlimit="10" stroke-linecap="round" stroke-linejoin="round"/><path d="M12.385 13.854l-.198-.098a1.787 1.787 0 00-2.377.978l-1.981 4.595c-.397.88 0 1.956.99 2.347l.198.098c.892.39 1.981 0 2.377-.978l1.981-4.596c.396-.977-.099-1.955-.99-2.346zM8.819 16.982l3.566 1.467" stroke="#1B4EA9" stroke-width="1.2" stroke-miterlimit="10" stroke-linecap="round" stroke-linejoin="round"/></svg>
