<svg width="33" height="31" viewBox="0 0 33 31" fill="none" xmlns="http://www.w3.org/2000/svg"><path d="M17.272 23.243c-5.431 0-9.707-2.08-9.707-4.738v-5.778M26.978 12.612v5.778c0 2.658-4.391 4.738-9.707 4.738M4.33 21.164c-.116 4.16 2.195 6.355-.694 9.013L.978 28.213c1.849-1.04 3.351-3.582 3.351-7.05z" stroke="#1B4EA9" stroke-width="1.2" stroke-miterlimit="10" stroke-linecap="round" stroke-linejoin="round"/><path d="M4.676 17.004c0-2.311-.347-4.738.346-6.125L2.134 9.61c-.578-.347-.694-1.272-.116-1.503l14.213-6.702c.463-.231 1.156-.116 1.734.115l13.982 6.472c.578.23.578 1.155.116 1.386L17.849 16.08c-.462.232-1.271.116-1.733-.115L5.022 10.879l11.903-2.426M4.56 17.582c.809 0 1.502.693 1.502 1.502 0 .81-.693 1.503-1.502 1.503s-1.502-.694-1.502-1.503c0-.809.693-1.502 1.502-1.502z" stroke="#1B4EA9" stroke-width="1.2" stroke-miterlimit="10" stroke-linecap="round" stroke-linejoin="round"/></svg>
