<svg width="31" height="23" viewBox="0 0 31 23" fill="none" xmlns="http://www.w3.org/2000/svg"><path d="M5.992 12.257l-.518-.415c-.518-.414-1.346-.31-1.76.208l-1.14 1.45c-.413.517-.31 1.242.208 1.656l.518.414c.517.414 1.346.31 1.76-.207l1.139-1.45c.414-.517.31-1.242-.207-1.656zM10.03 12.36l-.517-.414c-.518-.414-1.346-.31-1.76.207L4.75 15.985c-.414.414-.31 1.242.207 1.656l.518.414c.517.415 1.346.311 1.76-.207l3.003-3.83c.414-.519.31-1.243-.207-1.658z" stroke="#1B4EA9" stroke-width="1.2" stroke-miterlimit="10" stroke-linecap="round" stroke-linejoin="round"/><path d="M11.998 14.845l-.518-.414c-.518-.414-1.346-.31-1.76.207l-2.692 3.417c-.415.518-.311 1.346.207 1.76l.517.415c.518.414 1.346.31 1.76-.207l2.693-3.417c.414-.622.31-1.346-.207-1.76z" stroke="#1B4EA9" stroke-width="1.2" stroke-miterlimit="10" stroke-linecap="round" stroke-linejoin="round"/><path d="M13.862 17.434l-.518-.414c-.518-.414-1.346-.31-1.76.207l-1.76 2.278c-.415.518-.311 1.346.207 1.76l.517.414c.518.415 1.346.311 1.76-.207l1.76-2.278c.415-.517.311-1.346-.206-1.76zM3.196 12.775L.711 9.668M10.03 3.042s-2.692-.207-4.555-1.76M22.87 2.11a2.94 2.94 0 001.76-.62M22.663 2.11s-3.003-.725-4.764-.932c0 0-5.384 0-6.626.828C9.927 3.56 7.856 7.183 7.856 7.183c-.207.725.725 1.036.725 1.036 2.795-.104 4.556-2.692 4.556-2.692.517-.518 1.863-.518 1.863-.518 5.177 2.07 11.597 7.87 11.597 7.87 1.243 2.588-1.864 2.588-1.864 2.588l-6.109-3.624" stroke="#1B4EA9" stroke-width="1.2" stroke-miterlimit="10" stroke-linecap="round" stroke-linejoin="round"/><path d="M24.32 15.052c.414 2.589-2.072 2.382-2.072 2.382l-5.28-2.9M21.834 17.227c.415 2.692-2.174 2.174-2.174 2.174l-4.349-1.967" stroke="#1B4EA9" stroke-width="1.2" stroke-miterlimit="10" stroke-linecap="round" stroke-linejoin="round"/><path d="M13.137 20.23s2.692 1.036 4.038.725c1.554-.103 2.589-.828 2.175-1.76M26.183 12.465c1.243-.415 3.417-2.589 3.417-2.589" stroke="#1B4EA9" stroke-width="1.2" stroke-miterlimit="10" stroke-linecap="round" stroke-linejoin="round"/></svg>
