<svg width="26" height="28" viewBox="0 0 26 28" fill="none" xmlns="http://www.w3.org/2000/svg"><path d="M.867 8.2l1.793-.95M.867 8.198l.844 8.546M1.71 16.745h1.478M3.188 16.745l.422 8.018M3.61 24.764h.422M5.826 5.877a2.532 2.532 0 100-5.064 2.532 2.532 0 000 5.064zM25.133 8.2l-1.793-.95M25.133 8.198l-.95 8.546M24.184 16.745h-1.372M22.812 16.745l-.422 8.018M22.39 24.764h-.527M20.175 5.877a2.532 2.532 0 100-5.064 2.532 2.532 0 000 5.064zM8.041 10.625L9.835 9.57M8.041 10.626l.95 8.44M8.99 19.065h1.372M10.362 19.065l.422 8.124M10.784 27.19h.422M17.959 10.625L16.165 9.57M17.96 10.626l-.95 8.44M17.01 19.065h-1.372M15.638 19.065l-.422 8.124M15.216 27.19h-.528M13 8.303a2.532 2.532 0 100-5.064 2.532 2.532 0 000 5.064z" stroke="#1B4EA9" stroke-width="1.2" stroke-miterlimit="10" stroke-linecap="round" stroke-linejoin="round"/></svg>
