<svg width="30" height="28" viewBox="0 0 30 28" fill="none" xmlns="http://www.w3.org/2000/svg">
    <path d="M15.4572 13.558H14.9343V12.4107C14.9343 12.1759 14.744 11.9856 14.5092 11.9856C14.2744 11.9856 14.0841 12.1759 14.0841 12.4107V13.9831C14.0841 14.2179 14.2744 14.4082 14.5092 14.4082H15.4572C15.692 14.4082 15.8823 14.2179 15.8823 13.9831C15.8823 13.7484 15.692 13.558 15.4572 13.558Z" fill="#1B4EA9"/>
    <path d="M14.5093 9.9971C12.5491 9.9971 10.9543 11.5986 10.9543 13.5672C10.9543 15.5357 12.5491 17.1372 14.5093 17.1372C16.4695 17.1372 18.0642 15.5357 18.0642 13.5672C18.0642 11.5986 16.4695 9.9971 14.5093 9.9971ZM14.5093 16.287C13.0179 16.287 11.8045 15.0669 11.8045 13.5672C11.8045 12.0675 13.0178 10.8473 14.5093 10.8473C16.0007 10.8473 17.214 12.0674 17.214 13.5672C17.214 15.0669 16.0007 16.287 14.5093 16.287Z" fill="#1B4EA9"/>
    <path d="M3.3009 17.9821H7.22929C7.57527 17.9821 7.8568 17.7006 7.8568 17.3546V15.3982C7.8568 15.0522 7.57527 14.7707 7.22929 14.7707H3.3009C2.95402 14.7707 2.67175 15.0522 2.67175 15.3982V17.3546C2.67181 17.7006 2.95402 17.9821 3.3009 17.9821ZM5.6894 15.621H7.0066V17.1319H5.6894V15.621ZM3.52201 15.621H4.8392V17.1319H3.52201V15.621Z" fill="#1B4EA9"/>
    <path d="M2.67181 21.6046C2.67181 21.9515 2.95402 22.2337 3.30096 22.2337H7.22935C7.57532 22.2337 7.85685 21.9515 7.85685 21.6046V19.6499C7.85685 19.303 7.57532 19.0208 7.22935 19.0208H3.3009C2.95402 19.0208 2.67175 19.303 2.67175 19.6499V21.6046H2.67181ZM5.6894 19.871H7.0066V21.3836H5.6894V19.871ZM3.52201 19.871H4.8392V21.3836H3.52201V19.871Z" fill="#1B4EA9"/>
    <path d="M21.7909 17.9821H25.7193C26.0653 17.9821 26.3468 17.7006 26.3468 17.3546V15.3982C26.3468 15.0522 26.0653 14.7707 25.7193 14.7707H21.7909C21.444 14.7707 21.1617 15.0522 21.1617 15.3982V17.3546C21.1618 17.7006 21.444 17.9821 21.7909 17.9821ZM24.1794 15.621H25.4966V17.1319H24.1794V15.621ZM22.012 15.621H23.3292V17.1319H22.012V15.621Z" fill="#1B4EA9"/>
    <path d="M21.7909 22.2337H25.7193C26.0653 22.2337 26.3468 21.9515 26.3468 21.6046V19.6499C26.3468 19.303 26.0653 19.0208 25.7193 19.0208H21.7909C21.444 19.0208 21.1617 19.303 21.1617 19.6499V21.6046C21.1618 21.9515 21.444 22.2337 21.7909 22.2337ZM24.1794 19.871H25.4966V21.3836H24.1794V19.871ZM22.012 19.871H23.3292V21.3836H22.012V19.871Z" fill="#1B4EA9"/>
    <path d="M28.449 10.2011H20.2509V8.92945H20.7721C21.1137 8.92945 21.3917 8.65081 21.3917 8.30835V6.53828C21.3917 6.19582 21.1138 5.91724 20.7721 5.91724H14.9344V4.66659H18.3043C18.7274 4.66659 19.0716 4.32169 19.0716 3.89778V1.44823C19.0716 1.02432 18.7274 0.679425 18.3043 0.679425H14.9344V0.425101C14.9344 0.190332 14.7441 0 14.5093 0C14.2744 0 14.0842 0.190332 14.0842 0.425101V1.10453V4.24149V5.9173H8.2481C7.90564 5.9173 7.627 6.19594 7.627 6.53834V8.3084C7.627 8.65087 7.90564 8.92951 8.2481 8.92951H8.76933V10.2011H0.569692C0.255571 10.2011 0 10.4573 0 10.7723V12.2645C0 12.5795 0.255571 12.8358 0.569692 12.8358H0.845101V18.5014C0.845101 18.7362 1.03538 18.9265 1.2702 18.9265C1.50503 18.9265 1.6953 18.7362 1.6953 18.5014V12.8358H8.76933V27.1498H1.6953V20.4642C1.6953 20.2294 1.50503 20.0391 1.2702 20.0391C1.03538 20.0391 0.845101 20.2294 0.845101 20.4642V27.3179C0.845101 27.694 1.15185 28 1.52883 28H27.4914C27.8675 28 28.1735 27.694 28.1735 27.3179V12.8357H28.4489C28.7639 12.8357 29.0202 12.5795 29.0202 12.2645V10.7723C29.0202 10.4573 28.764 10.2011 28.449 10.2011ZM14.9344 1.52963H18.2214V3.81639H14.9344V1.52963ZM8.76933 11.9855H0.850203V11.0512H8.76933V11.9855ZM28.17 11.0513V11.9856H27.7485H20.2509V11.0513H28.17ZM17.4487 27.1498H11.57V26.1159H11.9467H17.072H17.4487V27.1498H17.4487ZM12.3717 25.2657V20.3207H14.0842V25.2657H12.3717ZM14.9344 25.2657V20.3207H16.6469V25.2657H14.9344ZM17.4971 25.2668V20.1959C17.4971 19.7959 17.1716 19.4705 16.7715 19.4705H12.2487C11.8477 19.4705 11.5215 19.7959 11.5215 20.1959V25.2668C11.0775 25.2789 10.7198 25.6297 10.7198 26.0602V27.1498H9.61947V8.92945H13.4746C13.7094 8.92945 13.8997 8.73912 13.8997 8.50435C13.8997 8.26958 13.7094 8.07925 13.4746 8.07925H8.47714V6.7675H20.5415V8.07925H15.3673C15.1325 8.07925 14.9422 8.26958 14.9422 8.50435C14.9422 8.73912 15.1325 8.92945 15.3673 8.92945H19.4007V27.1498H18.2989V26.0602C18.2989 25.6292 17.941 25.278 17.4971 25.2668ZM27.3234 27.1498H20.2509V12.8357H27.3233V27.1498H27.3234Z" fill="#1B4EA9"/>
</svg>
