<svg width="26" height="27" viewBox="0 0 26 27" fill="none" xmlns="http://www.w3.org/2000/svg"><path clip-rule="evenodd" d="M10.009 7.854c1.273-1.762 2.643-3.33 4.308-4.406C17.451 1.39 21.27 1.098 25.382 1c-.098 4.112-.392 7.931-2.448 11.065-2.937 4.406-9.106 7.442-14.296 8.42l-2.742-2.74c.685-3.232 2.056-6.855 4.113-9.89zM3.84 20.583c-.882 0-1.665.588-1.959 1.47L1 24.99v.098c0 .195.196.391.392.391h.098l2.937-.881c.882-.294 1.469-1.077 1.469-1.958 0-1.175-.881-2.057-2.056-2.057z" stroke="#1B4EA9" stroke-width="1.2" stroke-miterlimit="10" stroke-linecap="round" stroke-linejoin="round"/><path d="M12.457 19.41c.588.978.98 1.957 1.175 2.839.098.294.294.587.588.783.098 0 .293.098.391.098.196 0 .392-.098.588-.196 2.056-1.469 3.33-3.819 3.525-6.267M9.91 7.757c-2.545.196-4.895 1.469-6.364 3.525-.196.294-.196.685-.098.98.098.293.392.587.783.587.882.196 1.763.49 2.742 1.077" stroke="#1B4EA9" stroke-width="1.2" stroke-miterlimit="10" stroke-linecap="round" stroke-linejoin="round"/><path clip-rule="evenodd" d="M18.527 9.52c.882 0 1.567-.686 1.567-1.568 0-.88-.685-1.664-1.567-1.664a1.65 1.65 0 00-1.664 1.664c.098.882.783 1.567 1.664 1.567z" stroke="#1B4EA9" stroke-width="1.2" stroke-miterlimit="10" stroke-linecap="round" stroke-linejoin="round"/></svg>
