<svg width="19" height="32" viewBox="0 0 19 32" fill="none" xmlns="http://www.w3.org/2000/svg"><path d="M7.673 14.382c.347.693 2.311 3.004 3.12 3.929.925.924 2.08 2.426 2.543 3.697a6.053 6.053 0 01-4.738 8.32c-3.351.578-6.587-1.848-7.05-5.2-.23-1.502.232-2.888.925-4.16.694-1.155 1.387-1.848 2.196-2.773.809-.809 2.658-3.12 3.004-3.813zM14.26 4.674c.231.462 1.387 1.849 1.849 2.426.578.578 1.271 1.503 1.502 2.196.925 2.196-.462 4.622-2.889 5.085-2.08.346-3.929-1.156-4.275-3.12 0-1.04.23-1.85.693-2.658.462-.694.809-1.04 1.387-1.618.346-.578 1.502-1.849 1.733-2.311zM4.207 1.555c.115.346 1.04 1.27 1.386 1.733.347.462.925 1.04 1.156 1.618.693 1.618-.347 3.35-2.08 3.582-1.502.231-2.89-.809-3.005-2.311-.23-.578 0-1.271.347-1.849.231-.462.578-.809.924-1.156.347-.346 1.156-1.27 1.272-1.617z" stroke="#1B4EA9" stroke-width="1.2" stroke-miterlimit="10" stroke-linecap="round" stroke-linejoin="round"/></svg>
