<svg width="300" height="60" viewBox="0 0 196 60" fill="none"
    xmlns="http://www.w3.org/2000/svg">
    <path d="M29.9993 53.8753C43.0609 53.8753 53.6494 43.2337 53.6494 30.1066C53.6494 16.9795 43.0609 6.33789 29.9993 6.33789C16.9376 6.33789 6.34912 16.9795 6.34912 30.1066C6.34912 43.2337 16.9376 53.8753 29.9993 53.8753Z" fill="url(#paint2_radial)"/>
    <path d="M0.170306 26.5518C0.170306 26.5518 0.127693 27.0228 0.170306 27.6652C0.170306 28.3076 0.340758 29.0785 0.596435 29.6781C0.894725 30.2777 1.27824 30.5346 1.57653 30.7059C1.83221 30.8344 2.04527 30.8344 2.04527 30.8344C2.04527 30.8344 2.04527 30.3633 1.96005 29.8066C1.91743 29.207 1.74698 28.4789 1.53392 27.8794C1.27824 27.2798 0.937338 26.98 0.68166 26.7659C0.383371 26.5518 0.170306 26.5518 0.170306 26.5518Z" fill="#F96430"/>
    <path d="M4.34611 27.0235C4.34611 27.0235 4.30349 27.4517 4.17566 27.9656C4.04782 28.5224 3.91998 29.1648 3.62169 29.7215C3.3234 30.2354 2.9825 30.5352 2.68421 30.6637C2.38592 30.7922 2.17285 30.835 2.17285 30.835C2.17285 30.835 2.17285 30.3639 2.21546 29.8072C2.30069 29.2076 2.42853 28.4796 2.76943 27.9656C3.11033 27.4517 3.49385 27.1948 3.79214 27.1091C4.13304 26.9806 4.34611 27.0235 4.34611 27.0235Z" fill="#F96430"/>
    <path d="M4.26017 20.8135C4.26017 20.8135 3.87665 21.2846 3.40791 22.0126C2.98178 22.6978 2.47043 23.64 2.21475 24.4109C2.08691 24.7963 2.0443 25.1818 2.00169 25.5244C1.95907 25.867 1.95907 26.2096 2.00169 26.4666C2.0443 27.0233 2.12952 27.3659 2.12952 27.3659C2.12952 27.3659 2.34259 27.0661 2.59827 26.6379C2.7261 26.4237 2.89656 26.124 3.02439 25.8242C3.15223 25.5244 3.28007 25.1818 3.40791 24.7963C3.62097 24.0683 3.79143 23.0833 3.96188 22.2696C4.13233 21.4559 4.26017 20.8135 4.26017 20.8135Z" fill="#F96430"/>
    <path d="M0 30.792C0 30.792 0 30.9205 0 31.0918C0 31.3059 0.0426129 31.5629 0.127839 31.9055C0.170451 32.2053 0.255677 32.5479 0.383516 32.8905C0.511354 33.2331 0.639193 33.5757 0.809644 33.8327C1.15055 34.3894 1.57668 34.6035 1.91758 34.6892C2.25848 34.7749 2.47155 34.732 2.47155 34.732C2.47155 34.732 2.42893 34.6035 2.42893 34.4322C2.38632 34.2609 2.34371 34.004 2.25848 33.7042C2.17326 33.4044 2.08803 33.1046 1.96019 32.762C1.87497 32.4622 1.70451 32.1196 1.57668 31.8627C1.23577 31.3059 0.89487 31.0489 0.59658 30.8776C0.213064 30.792 0 30.792 0 30.792Z" fill="#F96430"/>
    <path d="M4.21881 30.6631C4.21881 30.6631 4.21881 30.7487 4.21881 30.92C4.21881 31.0913 4.21881 31.3483 4.17619 31.6053C4.17619 31.8622 4.13358 32.2048 4.09097 32.5046C4.04836 32.8044 3.96313 33.147 3.8779 33.404C3.66484 33.9607 3.36655 34.3033 3.06826 34.4746C2.81258 34.6888 2.55691 34.7316 2.55691 34.7316C2.55691 34.7316 2.55691 34.6031 2.51429 34.4318C2.47168 34.2605 2.47168 34.0035 2.47168 33.7038C2.47168 33.404 2.47168 33.0614 2.51429 32.7616C2.55691 32.419 2.64213 32.1192 2.76997 31.8194C3.02565 31.2627 3.36655 30.9629 3.66484 30.8344C4.00574 30.6631 4.21881 30.6631 4.21881 30.6631Z" fill="#F96430"/>
    <path d="M0.427734 34.9882C0.427734 34.9882 0.51296 35.4593 0.683411 36.0589C0.896476 36.6585 1.19477 37.3865 1.62089 37.9004C2.04702 38.3715 2.47315 38.5428 2.81405 38.5857C3.15496 38.6285 3.36802 38.5428 3.36802 38.5428C3.36802 38.5428 3.32541 38.4572 3.2828 38.2431C3.24018 38.0718 3.15496 37.8148 3.02712 37.5578C2.77144 37.0011 2.51576 36.3159 2.08964 35.8448C1.70612 35.3309 1.27999 35.1167 0.981701 35.0311C0.640799 34.9454 0.427734 34.9882 0.427734 34.9882Z" fill="#F96430"/>
    <path d="M4.56145 34.2607C4.56145 34.2607 4.64668 34.689 4.64668 35.2029C4.68929 35.7597 4.68929 36.4449 4.56145 37.0445C4.43362 37.644 4.13533 37.9866 3.92226 38.2436C3.7092 38.4577 3.49613 38.5434 3.49613 38.5434C3.49613 38.5434 3.45352 38.4149 3.41091 38.2436C3.36829 38.0723 3.32568 37.8153 3.28307 37.5156C3.19784 36.916 3.15523 36.1879 3.32568 35.5884C3.49613 34.9888 3.83704 34.6462 4.09271 34.4749C4.34839 34.3036 4.56145 34.2607 4.56145 34.2607Z" fill="#F96430"/>
    <path d="M1.40625 39.1001C1.40625 39.1001 1.5767 39.5712 1.83238 40.1279C2.13067 40.6847 2.51418 41.3699 3.02554 41.7982C3.53689 42.2264 3.96302 42.3121 4.30392 42.3121C4.64483 42.3121 4.85789 42.2264 4.85789 42.2264C4.85789 42.2264 4.77267 42.1408 4.68744 41.9695C4.60221 41.7982 4.47438 41.584 4.34654 41.3271C4.00563 40.8131 3.66473 40.1708 3.19599 39.7425C2.76986 39.3142 2.30112 39.1429 1.96022 39.1001C1.61931 39.0573 1.40625 39.1001 1.40625 39.1001Z" fill="#F96430"/>
    <path d="M5.41178 37.8154C5.41178 37.8154 5.53962 38.2009 5.66746 38.7576C5.7953 39.2715 5.88053 39.9996 5.83791 40.5563C5.7953 41.1559 5.58224 41.5413 5.36917 41.7983C5.15611 42.0552 4.94304 42.1409 4.94304 42.1409C4.94304 42.1409 4.90043 42.0553 4.8152 41.8839C4.72998 41.7126 4.64475 41.4557 4.55953 41.1987C4.38908 40.642 4.26124 39.9139 4.34646 39.3144C4.43169 38.7148 4.68737 38.3293 4.94304 38.1152C5.19872 37.9011 5.41178 37.8154 5.41178 37.8154Z" fill="#F96430"/>
    <path d="M2.93994 43.0407C2.93994 43.0407 3.15301 43.469 3.49391 44.0257C3.83481 44.5397 4.34617 45.1392 4.90013 45.5247C5.4541 45.8673 5.92284 45.9101 6.22113 45.8673C6.56203 45.8244 6.73248 45.696 6.73248 45.696C6.73248 45.696 6.47681 45.3105 6.13591 44.8394C5.75239 44.3683 5.28365 43.8116 4.77229 43.4262C4.26094 43.0407 3.7922 42.9551 3.4513 42.9551C3.15301 42.9551 2.93994 43.0407 2.93994 43.0407Z" fill="#F96430"/>
    <path d="M6.73383 41.1992C6.73383 41.1992 6.90428 41.5847 7.11734 42.0986C7.2878 42.6125 7.50086 43.2549 7.54347 43.8545C7.58609 44.454 7.41563 44.8823 7.24518 45.1821C7.07473 45.4819 6.90428 45.6103 6.90428 45.6103C6.90428 45.6103 6.6486 45.2249 6.43554 44.711C6.17986 44.1971 5.9668 43.469 5.9668 42.8695C5.9668 42.2271 6.17986 41.8416 6.39293 41.5847C6.52076 41.2849 6.73383 41.1992 6.73383 41.1992Z" fill="#F96430"/>
    <path d="M5.02734 46.7239C5.02734 46.7239 5.06996 46.8096 5.19779 46.9809C5.32563 47.1522 5.49608 47.3663 5.70915 47.5805C6.13528 48.0516 6.73186 48.5655 7.28582 48.8653C7.8824 49.1222 8.35115 49.0794 8.64944 48.9938C8.94773 48.9081 9.11818 48.7368 9.11818 48.7368C9.11818 48.7368 8.81989 48.3942 8.39376 48.0087C7.96763 47.5805 7.41366 47.1094 6.8597 46.8096C6.30573 46.5098 5.83699 46.467 5.49608 46.5526C5.19779 46.5955 5.02734 46.7239 5.02734 46.7239Z" fill="#F96430"/>
    <path d="M8.5211 44.3682C8.5211 44.3682 8.56372 44.4538 8.64894 44.5823C8.73417 44.7108 8.86201 44.9249 8.98985 45.1819C9.24552 45.6958 9.54381 46.2954 9.67165 46.8949C9.79949 47.4945 9.71426 47.9228 9.54381 48.2225C9.41597 48.5223 9.24552 48.6936 9.24552 48.6936C9.24552 48.6936 8.94723 48.351 8.64894 47.8799C8.35065 47.366 8.00975 46.7236 7.92452 46.124C7.8393 45.5245 8.00975 45.0962 8.1802 44.7964C8.30804 44.4966 8.5211 44.3682 8.5211 44.3682Z" fill="#F96430"/>
    <path d="M7.58643 50.0633C7.58643 50.0633 7.67165 50.149 7.79949 50.2775C7.92733 50.4059 8.14039 50.6201 8.39607 50.7914C8.86481 51.2196 9.54662 51.6479 10.1432 51.8192C10.7824 51.9905 11.2085 51.9049 11.5068 51.7764C11.8051 51.6479 11.9329 51.4766 11.9329 51.4766C11.9329 51.4766 11.592 51.1768 11.1233 50.8342C10.6546 50.4916 10.0154 50.1061 9.41878 49.8492C8.8222 49.6351 8.35346 49.6779 8.05517 49.7635C7.75688 49.9348 7.58643 50.0633 7.58643 50.0633Z" fill="#F96430"/>
    <path d="M10.7407 47.2373C10.7407 47.2373 10.8259 47.323 10.9111 47.4514C11.039 47.5799 11.1668 47.7512 11.3373 48.0082C11.6356 48.4793 12.0617 49.036 12.2321 49.5928C12.4452 50.1495 12.4026 50.6206 12.3174 50.9204C12.2321 51.263 12.0617 51.4343 12.0617 51.4343C12.0617 51.4343 11.7208 51.1345 11.3373 50.7062C10.9538 50.2352 10.5276 49.6356 10.3572 49.036C10.1867 48.4364 10.2719 48.0082 10.3998 47.7084C10.5702 47.3658 10.7407 47.2373 10.7407 47.2373Z" fill="#F96430"/>
    <path d="M10.5688 53.0185C10.5688 53.0185 10.6541 53.1041 10.8245 53.2326C10.995 53.3611 11.208 53.4895 11.4637 53.6608C11.9751 54.0035 12.6995 54.3461 13.3387 54.4317C13.9779 54.5174 14.404 54.3461 14.7023 54.1748C15.0006 54.0035 15.0858 53.7893 15.0858 53.7893C15.0858 53.7893 14.7023 53.5324 14.1909 53.2754C13.6796 52.9756 12.9978 52.6758 12.4012 52.5474C11.8046 52.4189 11.3359 52.5474 11.0376 52.6758C10.6967 52.8471 10.5688 53.0185 10.5688 53.0185Z" fill="#F96430"/>
    <path d="M13.2947 49.7637C13.2947 49.7637 13.3799 49.8493 13.5077 49.935C13.6356 50.0635 13.806 50.2348 14.0191 50.4061C14.4026 50.7915 14.8713 51.3054 15.127 51.8622C15.3827 52.3761 15.4253 52.8472 15.3827 53.1898C15.3401 53.5324 15.2123 53.7037 15.2123 53.7037C15.2123 53.7037 14.8287 53.4468 14.4026 53.0613C13.9765 52.6759 13.4651 52.1191 13.2094 51.5624C12.9538 51.0056 12.9964 50.5346 13.0816 50.2348C13.1242 49.935 13.2947 49.7637 13.2947 49.7637Z" fill="#F96430"/>
    <path d="M13.936 55.5454C13.936 55.5454 14.3196 55.8023 14.9161 56.0593C15.2144 56.1878 15.5127 56.3163 15.8536 56.4019C16.1945 56.4876 16.5354 56.5304 16.8763 56.5732C17.5155 56.5732 17.9416 56.3591 18.1973 56.145C18.453 55.9308 18.5382 55.7167 18.5382 55.7167C18.5382 55.7167 18.453 55.6739 18.2825 55.5882C18.1121 55.5454 17.8564 55.4169 17.6007 55.3313C17.0468 55.1171 16.3224 54.903 15.7258 54.8602C15.0866 54.8173 14.6605 54.9886 14.3622 55.16C14.0639 55.3313 13.936 55.5454 13.936 55.5454Z" fill="#F96430"/>
    <path d="M16.1942 51.9053C16.1942 51.9053 16.5351 52.1194 16.9612 52.462C17.1743 52.6333 17.3874 52.8475 17.643 53.0616C17.8561 53.2757 18.0692 53.4899 18.2396 53.7468C18.5805 54.2607 18.6657 54.689 18.6657 55.0316C18.6657 55.3742 18.5805 55.5884 18.5805 55.5884C18.5805 55.5884 18.4953 55.5455 18.3248 55.4599C18.1544 55.3742 17.9413 55.2457 17.6857 55.0744C17.2169 54.7318 16.6203 54.3036 16.322 53.7468C15.9811 53.2329 15.9811 52.7618 16.0237 52.4192C16.0664 52.1194 16.1942 51.9053 16.1942 51.9053Z" fill="#F96430"/>
    <path d="M17.6001 57.5585C17.6001 57.5585 17.7279 57.6014 17.8984 57.687C18.0688 57.7727 18.3245 57.8583 18.6654 57.944C18.9637 58.0296 19.3046 58.1153 19.6455 58.1581C19.9864 58.2009 20.3699 58.2009 20.6682 58.1581C21.3074 58.0725 21.6909 57.7727 21.904 57.5585C22.1171 57.3016 22.2023 57.0874 22.2023 57.0874C22.2023 57.0874 22.0744 57.0446 21.904 57.0018C21.7335 56.959 21.4779 56.9161 21.1796 56.8305C20.8813 56.7877 20.583 56.702 20.2421 56.702C19.9012 56.6592 19.5603 56.6592 19.262 56.6592C18.6228 56.7448 18.2393 56.9161 17.9836 57.1303C17.6853 57.3444 17.6001 57.5585 17.6001 57.5585Z" fill="#F96430"/>
    <path d="M19.3478 53.6611C19.3478 53.6611 19.433 53.704 19.6035 53.7896C19.7313 53.8753 19.9444 54.0037 20.2 54.1322C20.4557 54.2607 20.7114 54.432 20.9671 54.6033C21.2228 54.7746 21.4784 54.9887 21.6915 55.2029C22.075 55.6311 22.2455 56.0594 22.2881 56.402C22.3307 56.7446 22.2881 56.9588 22.2881 56.9588C22.2881 56.9588 22.2028 56.9159 21.9898 56.8731C21.8193 56.8303 21.5637 56.7018 21.308 56.5733C21.0523 56.4449 20.754 56.2735 20.4983 56.1022C20.2427 55.8881 19.987 55.674 19.7739 55.4598C19.3904 54.9888 19.3052 54.5177 19.3052 54.2179C19.2199 53.8324 19.3478 53.6611 19.3478 53.6611Z" fill="#F96430"/>
    <path d="M21.52 59.0144C21.52 59.0144 21.6479 59.0573 21.8183 59.1001C22.0314 59.1429 22.2871 59.2286 22.5853 59.2286C23.2245 59.3142 23.9916 59.3571 24.6308 59.1429C25.27 58.9716 25.5682 58.629 25.7813 58.372C25.9518 58.0723 25.9944 57.8581 25.9944 57.8581C25.9944 57.8581 25.8665 57.8581 25.6961 57.8153C25.5256 57.8153 25.2699 57.7725 24.9717 57.7725C24.3751 57.7725 23.6507 57.7297 23.0541 57.8581C22.4575 57.9866 22.074 58.2864 21.8609 58.5434C21.5626 58.8003 21.52 59.0144 21.52 59.0144Z" fill="#F96430"/>
    <path d="M22.6708 54.9033C22.6708 54.9033 22.756 54.9461 22.9265 54.989C23.0969 55.0318 23.31 55.1175 23.5657 55.2459C24.077 55.4172 24.6736 55.7599 25.1423 56.1025C25.6111 56.4879 25.8241 56.9162 25.9094 57.216C25.9946 57.5157 25.9946 57.7727 25.9946 57.7727C25.9946 57.7727 25.8668 57.7727 25.6963 57.7299C25.5259 57.687 25.2702 57.6442 24.9719 57.5586C24.4179 57.3873 23.7361 57.0875 23.31 56.702C22.8412 56.3166 22.7134 55.8455 22.6708 55.5457C22.6282 55.1175 22.6708 54.9033 22.6708 54.9033Z" fill="#F96430"/>
    <path d="M25.5688 59.9142C25.5688 59.9142 26.0376 59.9571 26.6768 59.9999C27.316 59.9999 28.083 59.9142 28.6796 59.6573C29.2762 59.4003 29.5745 59.0149 29.7023 58.7151C29.8301 58.4153 29.8301 58.2012 29.8301 58.2012C29.8301 58.2012 29.404 58.2012 28.8074 58.244C28.2108 58.3297 27.4864 58.3725 26.8898 58.6294C26.2933 58.8436 25.9524 59.1862 25.7819 59.4431C25.6115 59.7001 25.5688 59.9142 25.5688 59.9142Z" fill="#F96430"/>
    <path d="M26.1655 55.6748C26.1655 55.6748 26.5917 55.7176 27.103 55.8889C27.6144 56.0174 28.2962 56.2315 28.8075 56.5313C29.3189 56.8311 29.5746 57.2166 29.7024 57.5163C29.8302 57.8161 29.8302 58.0731 29.8302 58.0731C29.8302 58.0731 29.4041 58.0731 28.8075 57.9874C28.2109 57.9018 27.5291 57.6876 27.0178 57.345C26.5064 57.0024 26.2934 56.5742 26.2081 56.2744C26.1655 55.8889 26.1655 55.6748 26.1655 55.6748Z" fill="#F96430"/>
    <path d="M59.8688 26.5518C59.8688 26.5518 59.9114 27.0228 59.8688 27.6652C59.8688 28.3076 59.6983 29.0785 59.4426 29.6781C59.1443 30.2777 58.7608 30.5346 58.4625 30.7059C58.2068 30.8344 57.9512 30.8344 57.9512 30.8344C57.9512 30.8344 57.9512 30.3633 58.0364 29.8066C58.079 29.207 58.2495 28.4789 58.4625 27.8794C58.7182 27.2798 59.0591 26.98 59.3148 26.7659C59.6131 26.5518 59.8688 26.5518 59.8688 26.5518Z" fill="#F96430"/>
    <path d="M55.6509 27.0235C55.6509 27.0235 55.6935 27.4517 55.8213 27.9656C55.9492 28.5224 56.077 29.1648 56.3753 29.7215C56.6736 30.2354 57.0145 30.5352 57.3128 30.6637C57.6111 30.7922 57.8241 30.835 57.8241 30.835C57.8241 30.835 57.8241 30.3639 57.7815 29.8072C57.6963 29.2076 57.5685 28.4796 57.2276 27.9656C56.8867 27.4517 56.5031 27.1948 56.2048 27.1091C55.9066 26.9806 55.6509 27.0235 55.6509 27.0235Z" fill="#F96430"/>
    <path d="M55.7798 20.8135C55.7798 20.8135 56.1633 21.2846 56.632 22.0126C57.0582 22.6978 57.5695 23.64 57.8252 24.4109C57.953 24.7963 57.9957 25.1818 58.0383 25.5244C58.0809 25.867 58.0809 26.2096 58.0383 26.4666C57.9957 27.0233 57.8678 27.3659 57.8678 27.3659C57.8678 27.3659 57.6548 27.0661 57.3991 26.6379C57.2712 26.4237 57.1008 26.124 56.9729 25.8242C56.8451 25.5244 56.7173 25.1818 56.5894 24.7963C56.3764 24.0683 56.2059 23.0833 56.0355 22.2696C55.865 21.4559 55.7798 20.8135 55.7798 20.8135Z" fill="#F96430"/>
    <path d="M59.9984 30.791C59.9984 30.791 59.9984 30.9195 59.9984 31.0908C59.9984 31.3049 59.9558 31.5619 59.8706 31.9045C59.8279 32.2043 59.7427 32.5469 59.6149 32.8895C59.487 33.2321 59.3592 33.5747 59.1888 33.8317C58.8479 34.3884 58.4217 34.6026 58.0808 34.6882C57.7399 34.7739 57.5269 34.731 57.5269 34.731C57.5269 34.731 57.5695 34.6026 57.5695 34.4313C57.6121 34.26 57.6547 34.003 57.7399 33.7032C57.8251 33.4034 57.9104 33.1036 58.0382 32.761C58.1234 32.4612 58.2939 32.1186 58.4217 31.8617C58.7626 31.3049 59.1035 31.048 59.4018 30.8767C59.7853 30.791 59.9984 30.791 59.9984 30.791Z" fill="#F96430"/>
    <path d="M55.7798 30.6631C55.7798 30.6631 55.7798 30.7487 55.7798 30.92C55.7798 31.0914 55.7798 31.3483 55.8224 31.6053C55.8224 31.8622 55.865 32.2048 55.9076 32.5046C55.9502 32.8044 56.0355 33.147 56.1207 33.404C56.3338 33.9607 56.632 34.3033 56.9303 34.4746C57.186 34.6459 57.4417 34.6888 57.4417 34.6888C57.4417 34.6888 57.4417 34.5603 57.4843 34.389C57.5269 34.2177 57.5269 33.9607 57.5269 33.6609C57.5269 33.3612 57.5269 33.0185 57.4843 32.7188C57.4417 32.3761 57.3565 32.0764 57.2286 31.7766C56.9729 31.2198 56.632 30.92 56.3338 30.7916C56.0355 30.6631 55.7798 30.6631 55.7798 30.6631Z" fill="#F96430"/>
    <path d="M59.6151 34.9892C59.6151 34.9892 59.5299 35.4603 59.3594 36.0599C59.1464 36.6595 58.8481 37.3875 58.4219 37.9014C57.9958 38.3725 57.5697 38.5438 57.2288 38.5866C56.8879 38.6295 56.6748 38.5438 56.6748 38.5438C56.6748 38.5438 56.7174 38.4582 56.76 38.244C56.8026 38.0727 56.8879 37.8158 57.0157 37.5588C57.2714 37.0021 57.5271 36.3168 57.9532 35.8458C58.3367 35.3318 58.7628 35.1177 59.0611 35.0321C59.3594 34.9464 59.6151 34.9892 59.6151 34.9892Z" fill="#F96430"/>
    <path d="M55.4393 34.2607C55.4393 34.2607 55.3541 34.689 55.3541 35.2029C55.3115 35.7597 55.3115 36.4449 55.4393 37.0445C55.5672 37.644 55.8655 37.9866 56.0785 38.2436C56.3342 38.4577 56.5473 38.5434 56.5473 38.5434C56.5473 38.5434 56.5899 38.4149 56.6325 38.2436C56.6751 38.0723 56.7177 37.8153 56.7603 37.5156C56.8455 36.916 56.8882 36.1879 56.7177 35.5884C56.5473 34.9888 56.2064 34.6462 55.9507 34.4749C55.6524 34.3036 55.4393 34.2607 55.4393 34.2607Z" fill="#F96430"/>
    <path d="M58.6347 39.1001C58.6347 39.1001 58.4643 39.5712 58.2086 40.1279C57.9103 40.6847 57.5268 41.3699 57.0155 41.7982C56.5041 42.2264 56.078 42.3121 55.7371 42.3121C55.3962 42.3121 55.1831 42.2264 55.1831 42.2264C55.1831 42.2264 55.2257 42.1408 55.3109 41.9695C55.3962 41.7982 55.524 41.584 55.6518 41.3271C55.9928 40.8131 56.3337 40.1708 56.8024 39.7425C57.2285 39.3142 57.6973 39.1429 58.0382 39.1001C58.3791 39.0573 58.6347 39.1001 58.6347 39.1001Z" fill="#F96430"/>
    <path d="M54.5881 37.8154C54.5881 37.8154 54.4603 38.2009 54.3324 38.7576C54.2046 39.2715 54.1194 39.9996 54.162 40.5563C54.2046 41.1559 54.4176 41.5413 54.6307 41.7983C54.8438 42.0552 55.0568 42.1409 55.0568 42.1409C55.0568 42.1409 55.0994 42.0553 55.1847 41.8839C55.2699 41.7126 55.3551 41.4557 55.4404 41.1987C55.6108 40.642 55.7386 39.9139 55.6534 39.3144C55.5682 38.7148 55.3125 38.3293 55.0568 38.1152C54.8012 37.9011 54.5881 37.8154 54.5881 37.8154Z" fill="#F96430"/>
    <path d="M57.0616 43.0407C57.0616 43.0407 56.8485 43.469 56.5076 44.0257C56.1667 44.5397 55.6554 45.1392 55.1014 45.5247C54.5474 45.8673 54.0787 45.9101 53.7804 45.8673C53.4395 45.8244 53.269 45.696 53.269 45.696C53.269 45.696 53.5247 45.3105 53.8656 44.8394C54.2491 44.3683 54.7179 43.8116 55.2292 43.4262C55.7406 43.0407 56.2093 42.9551 56.5502 42.9551C56.8911 42.9551 57.0616 43.0407 57.0616 43.0407Z" fill="#F96430"/>
    <path d="M53.267 41.1992C53.267 41.1992 53.0965 41.5847 52.8834 42.0986C52.713 42.6125 52.4999 43.2549 52.4573 43.8545C52.4147 44.454 52.5851 44.8823 52.7556 45.1821C52.926 45.4819 53.0965 45.6103 53.0965 45.6103C53.0965 45.6103 53.3522 45.2249 53.5652 44.711C53.8209 44.1971 54.034 43.469 54.034 42.8695C54.034 42.2271 53.8209 41.8416 53.6079 41.5847C53.48 41.2849 53.267 41.1992 53.267 41.1992Z" fill="#F96430"/>
    <path d="M55.0098 46.7239C55.0098 46.7239 54.9672 46.8096 54.8393 46.9809C54.7115 47.1522 54.541 47.3663 54.328 47.5805C53.9018 48.0516 53.3053 48.5655 52.7513 48.8653C52.1547 49.1222 51.686 49.0794 51.3877 48.9938C51.0894 48.9081 50.9189 48.7368 50.9189 48.7368C50.9189 48.7368 51.2172 48.3942 51.6434 48.0087C52.0695 47.5805 52.6235 47.1094 53.1774 46.8096C53.7314 46.5098 54.2001 46.467 54.541 46.5526C54.7967 46.5955 55.0098 46.7239 55.0098 46.7239Z" fill="#F96430"/>
    <path d="M51.4748 44.3682C51.4748 44.3682 51.4322 44.4538 51.347 44.5823C51.2617 44.7108 51.1339 44.9249 51.0061 45.1819C50.7504 45.6958 50.4521 46.2954 50.3242 46.8949C50.1964 47.4945 50.2816 47.9228 50.4521 48.2225C50.5799 48.5223 50.7504 48.6936 50.7504 48.6936C50.7504 48.6936 51.0487 48.351 51.347 47.8799C51.6452 47.366 51.9861 46.7236 52.0714 46.124C52.1566 45.5245 51.9861 45.0962 51.8157 44.7964C51.6879 44.4966 51.4748 44.3682 51.4748 44.3682Z" fill="#F96430"/>
    <path d="M52.4554 50.0643C52.4554 50.0643 52.3702 50.15 52.2423 50.2784C52.1145 50.4069 51.9014 50.621 51.6458 50.7923C51.177 51.2206 50.4952 51.6489 49.8986 51.8202C49.2594 51.9915 48.8333 51.9058 48.535 51.7774C48.2367 51.6489 48.1089 51.4776 48.1089 51.4776C48.1089 51.4776 48.4498 51.1778 48.9185 50.8352C49.3873 50.4926 50.0265 50.1071 50.623 49.8502C51.2196 49.636 51.6884 49.6789 51.9867 49.7645C52.2849 49.9358 52.4554 50.0643 52.4554 50.0643Z" fill="#F96430"/>
    <path d="M49.3018 47.2373C49.3018 47.2373 49.2166 47.323 49.1313 47.4514C49.0035 47.5799 48.8756 47.7512 48.7052 48.0082C48.4069 48.4793 47.9808 49.036 47.8103 49.5928C47.5973 50.1495 47.6399 50.6206 47.7251 50.9204C47.8103 51.263 47.9808 51.4343 47.9808 51.4343C47.9808 51.4343 48.3217 51.1345 48.7052 50.7062C49.0887 50.2352 49.5148 49.6356 49.6853 49.036C49.8557 48.4364 49.7705 48.0082 49.6427 47.7084C49.4722 47.3658 49.3018 47.2373 49.3018 47.2373Z" fill="#F96430"/>
    <path d="M49.4735 53.0185C49.4735 53.0185 49.3883 53.1041 49.2178 53.2326C49.0474 53.3611 48.8343 53.4895 48.5786 53.6608C48.0673 54.0035 47.3429 54.3461 46.7037 54.4317C46.0645 54.5174 45.6383 54.3461 45.3401 54.1748C45.0418 54.0035 44.9565 53.7893 44.9565 53.7893C44.9565 53.7893 45.3401 53.5324 45.8514 53.2754C46.3628 52.9756 47.0446 52.6758 47.6412 52.5474C48.2377 52.4189 48.7065 52.5474 49.0048 52.6758C49.3031 52.8471 49.4735 53.0185 49.4735 53.0185Z" fill="#F96430"/>
    <path d="M46.745 49.7637C46.745 49.7637 46.6598 49.8493 46.5319 49.935C46.4041 50.0635 46.2336 50.2348 46.0206 50.4061C45.6371 50.7915 45.1683 51.3054 44.9127 51.8622C44.657 52.3761 44.6144 52.8472 44.657 53.1898C44.6996 53.5324 44.8274 53.7037 44.8274 53.7037C44.8274 53.7037 45.2109 53.4468 45.6371 53.0613C46.0632 52.6759 46.5746 52.1191 46.8302 51.5624C47.0859 51.0056 47.0433 50.5346 46.9581 50.2348C46.8728 49.935 46.745 49.7637 46.745 49.7637Z" fill="#F96430"/>
    <path d="M46.1095 55.5454C46.1095 55.5454 45.726 55.8023 45.1294 56.0593C44.8311 56.1878 44.5328 56.3163 44.1919 56.4019C43.851 56.4876 43.5101 56.5304 43.1692 56.5732C42.53 56.5732 42.1039 56.3591 41.8482 56.145C41.5925 55.9308 41.5073 55.7167 41.5073 55.7167C41.5073 55.7167 41.5925 55.6739 41.763 55.5882C41.9335 55.5454 42.1891 55.4169 42.4448 55.3313C42.9988 55.1171 43.7232 54.903 44.3198 54.8602C44.959 54.8173 45.3851 54.9886 45.6834 55.16C45.9817 55.3313 46.1095 55.5454 46.1095 55.5454Z" fill="#F96430"/>
    <path d="M43.849 51.9053C43.849 51.9053 43.5081 52.1194 43.082 52.462C42.8689 52.6333 42.6558 52.8475 42.4002 53.0616C42.1871 53.2757 41.974 53.4899 41.8036 53.7468C41.4627 54.2607 41.3774 54.689 41.3774 55.0316C41.3774 55.3742 41.4627 55.5884 41.4627 55.5884C41.4627 55.5884 41.5479 55.5455 41.7183 55.4599C41.8888 55.3742 42.1019 55.2457 42.3575 55.0744C42.8263 54.7318 43.4229 54.3036 43.7211 53.7468C44.0621 53.2329 44.0621 52.7618 44.0194 52.4192C43.9768 52.1194 43.849 51.9053 43.849 51.9053Z" fill="#F96430"/>
    <path d="M42.401 57.5585C42.401 57.5585 42.2732 57.6014 42.1027 57.687C41.9323 57.7727 41.6766 57.8583 41.3357 57.944C41.0374 58.0296 40.6965 58.1153 40.3556 58.1581C40.0147 58.2009 39.6312 58.2009 39.3329 58.1581C38.6937 58.0725 38.3102 57.7727 38.0971 57.5585C37.8841 57.3016 37.7988 57.0874 37.7988 57.0874C37.7988 57.0874 37.9267 57.0446 38.0971 57.0018C38.2676 56.959 38.5232 56.9161 38.8215 56.8305C39.1198 56.7877 39.4181 56.702 39.759 56.702C40.0999 56.6592 40.4408 56.6592 40.7391 56.6592C41.3783 56.7448 41.7618 56.9161 42.0175 57.1303C42.3158 57.3444 42.401 57.5585 42.401 57.5585Z" fill="#F96430"/>
    <path d="M40.6946 53.6611C40.6946 53.6611 40.6094 53.704 40.4389 53.7896C40.3111 53.8753 40.098 54.0037 39.8423 54.1322C39.5866 54.2607 39.331 54.432 39.0753 54.6033C38.8196 54.7746 38.5639 54.9887 38.3509 55.2029C37.9674 55.6311 37.7969 56.0594 37.7543 56.402C37.7117 56.7446 37.7543 56.9588 37.7543 56.9588C37.7543 56.9588 37.8395 56.9159 38.0526 56.8731C38.223 56.8303 38.4787 56.7018 38.7344 56.5733C38.9901 56.4449 39.2884 56.2735 39.544 56.1022C39.7997 55.8881 40.0554 55.674 40.2684 55.4598C40.652 54.9888 40.7372 54.5177 40.7372 54.2179C40.7798 53.8324 40.6946 53.6611 40.6946 53.6611Z" fill="#F96430"/>
    <path d="M38.5207 59.0144C38.5207 59.0144 38.3929 59.0573 38.2224 59.1001C38.0094 59.1429 37.7537 59.2286 37.4554 59.2286C36.8162 59.3142 36.0492 59.3571 35.41 59.1429C34.7708 58.9716 34.4725 58.629 34.2595 58.372C34.089 58.0723 34.0464 57.8581 34.0464 57.8581C34.0464 57.8581 34.1742 57.8581 34.3447 57.8153C34.5151 57.8153 34.7708 57.7725 35.0691 57.7725C35.6657 57.7725 36.3901 57.7297 36.9867 57.8581C37.5833 57.9866 37.9668 58.2864 38.1798 58.5434C38.4355 58.8003 38.5207 59.0144 38.5207 59.0144Z" fill="#F96430"/>
    <path d="M37.3267 54.9033C37.3267 54.9033 37.2415 54.9461 37.0711 54.989C36.9006 55.0318 36.6875 55.1175 36.4319 55.2459C35.9205 55.4172 35.3239 55.7599 34.8552 56.1025C34.3864 56.4879 34.1734 56.9162 34.0882 57.216C34.0029 57.5157 34.0029 57.7727 34.0029 57.7727C34.0029 57.7727 34.1308 57.7727 34.3012 57.7299C34.4717 57.687 34.7273 57.6442 35.0256 57.5586C35.5796 57.3873 36.2614 57.0875 36.6875 56.702C37.1563 56.3166 37.2841 55.8455 37.3267 55.5457C37.3693 55.1175 37.3267 54.9033 37.3267 54.9033Z" fill="#F96430"/>
    <path d="M34.4312 59.9142C34.4312 59.9142 33.9625 59.9571 33.3233 59.9999C32.6841 59.9999 31.917 59.9142 31.3205 59.6573C30.7239 59.4003 30.4256 59.0149 30.2978 58.7151C30.1699 58.4153 30.1699 58.2012 30.1699 58.2012C30.1699 58.2012 30.596 58.2012 31.1926 58.244C31.7892 58.3297 32.5136 58.3725 33.1102 58.6294C33.7068 58.8436 34.0477 59.1862 34.2181 59.4431C34.3886 59.7001 34.4312 59.9142 34.4312 59.9142Z" fill="#F96430"/>
    <path d="M33.8351 55.6738C33.8351 55.6738 33.409 55.7167 32.8976 55.888C32.3863 56.0164 31.7045 56.2306 31.1931 56.5304C30.6818 56.8301 30.4261 57.2156 30.2982 57.5154C30.1704 57.8152 30.1704 58.0721 30.1704 58.0721C30.1704 58.0721 30.5965 58.0721 31.1931 57.9865C31.7897 57.9008 32.4715 57.6867 32.9829 57.3441C33.4942 57.0014 33.7073 56.5732 33.7925 56.2734C33.8777 55.888 33.8351 55.6738 33.8351 55.6738Z" fill="#F96430"/>
    <path d="M42.0589 17.3448C35.1982 10.6638 24.2041 10.8351 17.5565 17.7302C14.318 21.0707 12.6134 25.4818 12.6561 30.107C12.7413 34.7751 14.6162 39.1006 17.94 42.3126C21.1786 45.4817 25.4825 47.1948 29.9995 47.1948C34.7295 47.1948 39.1612 45.3104 42.4424 41.9271C45.681 38.5867 47.3855 34.1756 47.3429 29.5503C47.2577 24.925 45.3827 20.5567 42.0589 17.3448ZM47.0446 29.5503C47.1298 34.1327 45.4253 38.4154 42.2294 41.713C35.7096 48.4796 24.8859 48.6509 18.1531 42.0985C14.8719 38.9293 13.0396 34.6466 12.997 30.107C12.9117 25.5246 14.6162 21.242 17.8122 17.9443C21.0508 14.6039 25.3973 12.7623 30.0421 12.7623C34.4738 12.7623 38.6925 14.4754 41.8885 17.5589C45.127 20.728 46.9594 25.0107 47.0446 29.5503Z" fill="#D4BA70"/>
    <path d="M44.1052 31.6918V27.9659H42.1876C42.0598 27.0237 41.8041 26.1671 41.5058 25.3106L43.1677 24.3684L41.2928 21.1565L39.6309 22.0986C39.0769 21.3706 38.3951 20.7282 37.7133 20.1714L38.6508 18.5012L35.4548 16.6168L34.5173 18.2871C33.6651 17.9445 32.8128 17.7303 31.8753 17.559V15.6318H28.168V17.559C27.2305 17.6875 26.3783 17.9445 25.526 18.2442L24.5885 16.574L21.3926 18.4584L22.3301 20.1286C21.6056 20.6854 20.9664 21.3706 20.4125 22.0558L18.7506 21.0708L16.8756 24.2828L18.5375 25.225C18.1966 26.0815 17.9835 26.938 17.8131 27.8802H15.8955V31.6918H17.8131C17.9409 32.6339 18.1966 33.4905 18.4949 34.347L16.833 35.2892L18.708 38.5012L20.3699 37.559C20.9238 38.287 21.6056 38.9294 22.2874 39.4862L21.35 41.1564L24.5459 43.0408L25.4834 41.3705C26.3357 41.7132 27.1879 41.9273 28.1254 42.0986V44.0258H31.8327V42.0986C32.7702 41.9701 33.6225 41.7132 34.4747 41.4134L35.4122 43.0836L38.6082 41.1992L37.6707 39.529C38.3951 38.9723 39.0343 38.287 39.5883 37.6018L41.2502 38.5868L43.1251 35.3748L41.4632 34.4327C41.8041 33.5761 42.0172 32.7196 42.1876 31.7774H44.1052" fill="url(#paint1_radial)"/>
    <path d="M30.0008 41.1563C23.8219 41.1563 18.751 36.06 18.751 29.8501C18.751 23.5975 23.8219 18.5439 30.0008 18.5439C36.2222 18.5439 41.2506 23.6403 41.2506 29.8501C41.2506 36.06 36.2222 41.1563 30.0008 41.1563ZM30.1712 38.6724V40.8565C30.64 40.7281 31.0661 39.9572 31.4922 38.6724H30.1712ZM28.5519 38.6724C28.9354 39.9572 29.4042 40.7281 29.8729 40.8565V38.6724H28.5519ZM31.7479 38.6724C31.4496 39.6146 31.1513 40.3426 30.7678 40.7709C31.7479 40.5139 32.6854 39.7859 33.4524 38.6724H31.7479ZM26.5917 38.6724C27.3588 39.7859 28.2536 40.5139 29.2764 40.7709C28.8928 40.3426 28.5519 39.6146 28.2963 38.6724H26.5917ZM33.7933 38.6724C33.2393 39.5289 32.6002 40.1713 31.8757 40.5996C33.1115 40.257 34.2621 39.5717 35.2421 38.6724H33.7933ZM24.802 38.6724C25.7821 39.6146 26.9326 40.257 28.1684 40.5996C27.4866 40.1713 26.8048 39.4861 26.2508 38.6724H24.802ZM23.4384 38.6724C24.3759 39.3576 25.4412 39.9144 26.5491 40.2998C25.7395 39.8715 25.0151 39.3148 24.3333 38.6724H23.4384ZM35.6683 38.6724C34.9865 39.3576 34.2621 39.9144 33.4524 40.2998C34.603 39.9144 35.6257 39.3576 36.5632 38.6724H35.6683ZM35.924 38.3726H36.9467C38.1398 37.3876 39.1625 36.1028 39.8443 34.6895H38.1398C37.6285 36.1028 36.8614 37.3448 35.924 38.3726ZM33.9638 38.3726H35.5404C36.5205 37.3876 37.2876 36.1028 37.8415 34.6895H35.4552C35.1143 36.1028 34.603 37.3448 33.9638 38.3726ZM31.8331 38.3726H33.6229C34.2621 37.3876 34.7734 36.1028 35.1569 34.6895H32.5149C32.3445 36.06 32.1314 37.3019 31.8331 38.3726ZM30.1712 38.3726H31.5348C31.7905 37.3876 32.0462 36.1456 32.2166 34.6895H30.1712V38.3726ZM28.4667 38.3726H29.8729V34.6895H27.8275C27.9554 36.1456 28.211 37.3876 28.4667 38.3726ZM26.3787 38.3726H28.1684C27.8701 37.3448 27.6571 36.06 27.4866 34.6895H24.8446C25.2281 36.1028 25.7395 37.3448 26.3787 38.3726ZM24.5037 38.3726H26.0804C25.4412 37.3448 24.9725 36.1028 24.5889 34.6895H22.16C22.714 36.1028 23.5236 37.3448 24.5037 38.3726ZM23.0549 38.3726H24.0776C23.1401 37.3448 22.3731 36.1028 21.8617 34.6895H20.1572C20.839 36.1028 21.8617 37.3448 23.0549 38.3726ZM38.2677 34.3469H39.9722C40.5688 33.0193 40.9097 31.5204 40.9523 29.9786H39.0347C39.0347 31.5204 38.7364 33.0193 38.2677 34.3469ZM35.5404 34.3469H37.9694C38.4381 33.0193 38.7364 31.5204 38.7364 29.9786H36.0092C36.0092 31.5204 35.8387 33.0193 35.5404 34.3469ZM32.5575 34.3469H35.2421C35.5404 33.0193 35.7535 31.5204 35.7535 29.9786H32.8132C32.7706 31.4775 32.6854 32.9765 32.5575 34.3469ZM30.1712 34.3469H32.2592C32.3871 33.0193 32.4723 31.5632 32.4723 29.9786H30.1712V34.3469ZM27.7423 34.3469H29.8303V29.9786H27.5292C27.5292 31.606 27.6144 33.0621 27.7423 34.3469ZM24.802 34.3469H27.4866C27.3588 32.9336 27.2735 31.4347 27.2735 29.9786H24.2906C24.2906 31.5632 24.4611 33.0193 24.802 34.3469ZM22.0748 34.3469H24.5037C24.2054 33.0193 23.9924 31.5204 23.9924 29.9786H21.2651C21.3077 31.5632 21.5634 33.0193 22.0748 34.3469ZM20.0294 34.3469H21.7339C21.2651 33.0193 21.0095 31.5204 20.9668 29.9786H19.0493C19.0919 31.5632 19.4328 33.0193 20.0294 34.3469ZM39.0347 29.6788H40.9523C40.9523 28.1371 40.5688 26.6381 39.9722 25.3105H38.2677C38.7364 26.6381 39.0347 28.1371 39.0347 29.6788ZM36.0092 29.6788H38.7364C38.7364 28.1371 38.4381 26.6381 37.9694 25.3105H35.5404C35.8387 26.6381 36.0092 28.1371 36.0092 29.6788ZM32.7706 29.6788H35.7109C35.7109 28.1371 35.5404 26.6381 35.1995 25.3105H32.5149C32.6854 26.681 32.7706 28.1799 32.7706 29.6788ZM30.1712 29.6788H32.4723C32.4723 28.0942 32.3871 26.5953 32.2592 25.3105H30.1712V29.6788ZM27.5292 29.6788H29.8303V25.3105H27.7423C27.6144 26.5953 27.5292 28.0942 27.5292 29.6788ZM24.2906 29.6788H27.2309C27.2309 28.1799 27.3162 26.681 27.444 25.3105H24.7594C24.4611 26.6381 24.2906 28.1371 24.2906 29.6788ZM21.2651 29.6788H23.9924C23.9924 28.1371 24.1628 26.6381 24.5037 25.3105H22.0748C21.5634 26.6381 21.3077 28.1371 21.2651 29.6788ZM19.0493 29.6788H20.9668C20.9668 28.1371 21.2651 26.6381 21.7339 25.3105H20.0294C19.4328 26.6381 19.0919 28.1371 19.0493 29.6788ZM38.1824 25.0107H39.887C39.2051 23.5975 38.1824 22.3127 36.9893 21.3277H35.9666C36.8614 22.3555 37.6285 23.5975 38.1824 25.0107ZM35.4552 25.0107H37.8415C37.2876 23.5975 36.4779 22.3127 35.5404 21.3277H33.9638C34.603 22.3555 35.1143 23.5975 35.4552 25.0107ZM32.5149 25.0107H35.1569C34.7734 23.5975 34.2621 22.3127 33.6229 21.3277H31.8331C32.1314 22.3555 32.3445 23.6403 32.5149 25.0107ZM30.1712 25.0107H32.2166C32.0462 23.5546 31.8331 22.3127 31.5348 21.3277H30.1286V25.0107H30.1712ZM27.7849 25.0107H29.8303V21.3277H28.4241C28.211 22.3127 27.9554 23.5546 27.7849 25.0107ZM24.8872 25.0107H27.5292C27.6997 23.6403 27.9127 22.3555 28.211 21.3277H26.4213C25.7395 22.3127 25.2281 23.5546 24.8872 25.0107ZM22.16 25.0107H24.5463C24.8872 23.5975 25.3986 22.3555 26.0378 21.3277H24.4611C23.5236 22.3127 22.714 23.5546 22.16 25.0107ZM20.1572 25.0107H21.8617C22.4157 23.5975 23.1401 22.3555 24.0776 21.3277H23.0549C21.8617 22.3127 20.839 23.5546 20.1572 25.0107ZM35.6683 21.0279H36.5632C35.6257 20.3427 34.5603 19.7859 33.4524 19.4005C34.2621 19.7859 34.9865 20.3427 35.6683 21.0279ZM33.7933 21.0279H35.2421C34.2621 20.0857 33.1115 19.4433 31.8757 19.1007C32.5575 19.4861 33.1967 20.1714 33.7933 21.0279ZM31.7479 21.0279H33.4098C32.6428 19.9144 31.7479 19.1863 30.7252 18.9294C31.1513 19.3148 31.4922 20.0857 31.7479 21.0279ZM30.1712 21.0279H31.4922C31.1087 19.7431 30.64 18.9722 30.1712 18.8437V21.0279ZM28.5519 21.0279H29.8729V18.8437C29.4042 18.9722 28.9354 19.7431 28.5519 21.0279ZM26.5917 21.0279H28.2536C28.5519 20.0857 28.8502 19.3576 29.2337 18.9294C28.2536 19.1863 27.3588 19.9144 26.5917 21.0279ZM24.802 21.0279H26.2508C26.8048 20.1714 27.444 19.529 28.1684 19.1007C26.9326 19.4005 25.7821 20.0857 24.802 21.0279ZM23.4384 21.0279H24.3333C25.0151 20.3427 25.7395 19.7859 26.5491 19.4005C25.4412 19.7431 24.3759 20.2998 23.4384 21.0279Z" fill="white"/>
    <path d="M30.0012 21.6699L22.7144 34.5179H37.2879L30.0012 21.6699Z" fill="#1B58BB"/>
    <path d="M37.5439 34.6463H22.459L30.0015 21.3701L37.5439 34.6463ZM22.9703 34.3465H37.0326L30.0015 21.9697L22.9703 34.3465Z" fill="white"/>
    <path d="M29.9995 7.36621C17.5139 7.36621 7.37207 17.5589 7.37207 30.1071C7.37207 42.6552 17.5139 52.8479 29.9995 52.8479C42.4851 52.8479 52.6269 42.6552 52.6269 30.1071C52.6269 17.5589 42.4851 7.36621 29.9995 7.36621ZM52.3286 30.1071C52.3286 42.4839 42.3146 52.5053 30.0421 52.5053C17.727 52.5053 7.75559 42.4411 7.75559 30.1071C7.75559 17.773 17.7696 7.70882 30.0421 7.70882C42.3146 7.666 52.3286 17.7302 52.3286 30.1071Z" fill="#D4BA70"/>
    <path d="M4.30371 14.6035L4.602 14.1753L7.07355 14.6035L5.11335 13.3616L5.45426 12.8477L8.82067 15.0746L8.565 15.5029L6.00823 15.0318L8.01103 16.3594L7.67013 16.8305L4.30371 14.6035Z" fill="#F96430"/>
    <path d="M6.30664 11.6489L7.37196 10.3213L7.75548 10.6639L7.1589 11.392L8.05377 12.12L8.52251 11.5204L8.90602 11.863L8.43728 12.4626L9.45999 13.3191L10.0566 12.5483L10.4401 12.8481L9.37477 14.1757L6.30664 11.6489Z" fill="#F96430"/>
    <path d="M12.1862 10.7492C11.8879 10.7064 11.6322 10.4923 11.334 10.1496L10.3965 9.03616C10.0982 8.69355 9.97035 8.39376 9.92773 8.09398C9.92773 7.79419 10.0556 7.53723 10.3965 7.23745C10.6948 6.98049 10.9931 6.85201 11.2487 6.89483C11.5044 6.93766 11.7601 7.10897 12.0158 7.36593L12.2288 7.62288L11.6749 8.09398L11.4618 7.83702C11.3766 7.70854 11.2913 7.66571 11.2061 7.58006C11.1635 7.53723 11.0783 7.4944 10.9931 7.4944C10.9078 7.4944 10.8226 7.53723 10.7374 7.62288C10.6522 7.70854 10.6095 7.79419 10.5669 7.87984C10.5669 7.9655 10.5669 8.05115 10.6095 8.1368C10.6522 8.22245 10.7374 8.30811 10.8226 8.43659L11.9732 9.76421C12.1436 9.93551 12.2714 10.064 12.3567 10.064C12.4845 10.1068 12.5697 10.064 12.6976 9.97834C12.7828 9.89269 12.8254 9.84986 12.8254 9.76421C12.8254 9.67855 12.8254 9.5929 12.7828 9.55007C12.7402 9.46442 12.655 9.37877 12.5697 9.25029L12.3567 8.99333L12.9106 8.52224L13.1237 8.7792C13.3794 9.07898 13.5072 9.33594 13.5498 9.63573C13.5498 9.89269 13.422 10.1925 13.1237 10.4494C12.7828 10.7064 12.4845 10.8349 12.1862 10.7492Z" fill="#F96430"/>
    <path d="M12.3145 5.78178L12.911 5.35352L14.9138 8.26572L15.7235 7.70897L16.0218 8.13724L14.6155 9.12224L12.3145 5.78178Z" fill="#F96430"/>
    <path d="M15.2993 3.89716L15.9811 3.51172L18.6231 6.68088L18.0265 7.02349L17.43 6.29544L16.8334 6.63805L17.1317 7.53741L16.5351 7.88002L15.2993 3.89716ZM17.1743 5.86717L16.109 4.49673L16.6629 6.12413L17.1743 5.86717Z" fill="#F96430"/>
    <path d="M17.854 2.56958L18.7489 2.22697C19.0472 2.09849 19.3028 2.05566 19.5159 2.05566C19.729 2.05566 19.8994 2.14132 20.0273 2.2698C20.1551 2.39828 20.2829 2.61241 20.4108 2.91219L20.9647 4.28264C21.0926 4.58243 21.1352 4.79656 21.1352 5.01069C21.1352 5.22482 21.05 5.39613 20.9221 5.56743C20.7943 5.73874 20.5812 5.86722 20.2829 5.9957L19.3881 6.38114L17.854 2.56958ZM20.0699 5.48178C20.2403 5.43896 20.3255 5.3533 20.3682 5.26765C20.4108 5.182 20.4108 5.09634 20.4108 5.01069C20.4108 4.92504 20.3255 4.75373 20.2829 4.58243L19.6864 3.12633C19.6011 2.95502 19.5585 2.82654 19.5159 2.74089C19.4733 2.65523 19.3881 2.61241 19.3028 2.61241C19.2176 2.61241 19.0898 2.61241 18.9619 2.69806L18.7489 2.78371L19.8568 5.56743L20.0699 5.48178Z" fill="#F96430"/>
    <path d="M21.2207 1.32741L21.9025 1.11328L23.0531 5.01049L22.3713 5.22462L21.2207 1.32741Z" fill="#F96430"/>
    <path d="M23.3091 0.727586L24.2892 0.55628C24.6727 0.470628 24.971 0.513454 25.184 0.641933C25.3971 0.770413 25.5676 0.984545 25.6528 1.36998C25.6954 1.62694 25.6954 1.79825 25.6102 1.96955C25.5249 2.14086 25.3971 2.22651 25.2267 2.31217C25.6954 2.31217 25.9937 2.61195 26.0789 3.1687C26.1641 3.55413 26.1215 3.85392 25.9511 4.11088C25.8232 4.32501 25.5249 4.49632 25.184 4.58197L24.0335 4.7961L23.3091 0.727586ZM24.5875 2.18369C24.8005 2.14086 24.9284 2.05521 24.971 1.96955C25.0136 1.84107 25.0562 1.7126 25.0136 1.49846C24.971 1.28433 24.8858 1.15585 24.8005 1.11302C24.6727 1.0702 24.5022 1.0702 24.2892 1.11302L24.1613 1.15585L24.3744 2.26934L24.5875 2.18369ZM24.971 4.02522C25.184 3.9824 25.3119 3.89675 25.3971 3.76827C25.4397 3.63979 25.4823 3.46848 25.4397 3.25435C25.3971 2.99739 25.3119 2.86891 25.2267 2.74043C25.0988 2.65478 24.971 2.61195 24.7579 2.65478L24.5022 2.6976L24.7579 4.02522H24.971Z" fill="#F96430"/>
    <path d="M27.612 4.06851C27.4415 3.98286 27.3137 3.81156 27.2285 3.64025C27.1432 3.46894 27.1006 3.21199 27.1006 2.9122L26.9302 0.171306L27.6546 0.128479L27.825 2.95503C27.825 3.16916 27.8677 3.38329 27.9529 3.46894C27.9955 3.59742 28.1233 3.64025 28.2938 3.64025C28.4642 3.64025 28.5921 3.5546 28.6347 3.42612C28.6773 3.29764 28.6773 3.12633 28.6773 2.86937L28.5069 0.0428265L29.146 0L29.3165 2.74089C29.3165 3.04068 29.3165 3.29764 29.2739 3.51177C29.2313 3.68308 29.1034 3.85438 28.9756 3.98286C28.8051 4.11134 28.5921 4.15417 28.2938 4.19699C27.9955 4.19699 27.7824 4.15417 27.612 4.06851Z" fill="#F96430"/>
    <path d="M30.596 3.81156C30.4256 3.59742 30.3403 3.29764 30.3403 2.86937L30.9795 2.78372C30.9795 3.04068 31.0221 3.25481 31.0648 3.38329C31.15 3.51177 31.2352 3.59742 31.4057 3.59742C31.5335 3.59742 31.6187 3.5546 31.6613 3.51177C31.7039 3.42612 31.7466 3.34046 31.7466 3.25481C31.7466 3.08351 31.7466 2.95503 31.6613 2.82655C31.5761 2.69807 31.4909 2.56959 31.363 2.44111L30.8943 1.97002C30.7238 1.84154 30.6386 1.67023 30.5534 1.54175C30.4682 1.37045 30.4682 1.19914 30.4682 0.985009C30.4682 0.685224 30.596 0.428265 30.7665 0.256959C30.9795 0.0428265 31.2352 0 31.5335 0C31.8744 0 32.1301 0.128479 32.2579 0.342612C32.3857 0.556744 32.471 0.813703 32.471 1.15631L31.8318 1.24197C31.8318 1.02784 31.7892 0.856529 31.7466 0.72805C31.7039 0.599571 31.6187 0.556744 31.4483 0.556744C31.363 0.556744 31.2778 0.599571 31.1926 0.642397C31.15 0.72805 31.1074 0.813703 31.1074 0.899356C31.1074 1.02784 31.1074 1.15631 31.15 1.24197C31.1926 1.32762 31.2778 1.41327 31.4057 1.54175L31.8744 2.01284C32.0448 2.18415 32.2153 2.35546 32.3005 2.56959C32.3858 2.74089 32.4284 2.99785 32.4284 3.21199C32.4284 3.42612 32.3857 3.5546 32.2579 3.7259C32.2153 3.85438 32.0875 3.98286 31.9596 4.06851C31.7892 4.15417 31.6187 4.19699 31.4057 4.15417C31.0221 4.15417 30.7665 4.02569 30.596 3.81156Z" fill="#F96430"/>
    <path d="M33.1528 4.71114C33.2381 4.71114 33.3233 4.66832 33.4085 4.58267C33.4937 4.53984 33.5363 4.41136 33.5363 4.32571L33.1954 4.28288L33.2807 3.59766L33.9199 3.68331L33.8346 4.28288C33.792 4.49701 33.7494 4.66832 33.6216 4.75397C33.4937 4.83962 33.3659 4.92528 33.1528 4.92528V4.71114Z" fill="#F96430"/>
    <path d="M37.4992 0.942383L38.0105 1.07086L38.3088 3.5548L38.948 1.32782L39.5446 1.49913L38.3514 5.43916L37.8827 5.31068L37.627 2.69827L36.9452 5.0109L36.3486 4.83959L37.4992 0.942383Z" fill="#F96430"/>
    <path d="M40.8645 2.05566L41.5463 2.31262L40.0549 6.08135L39.373 5.82439L40.8645 2.05566Z" fill="#F96430"/>
    <path d="M41.2488 6.33796C41.1635 6.081 41.2488 5.73839 41.4192 5.39578L42.0584 5.56709C41.9306 5.78122 41.888 5.99535 41.888 6.16666C41.888 6.33796 41.9732 6.42361 42.101 6.50927C42.1862 6.55209 42.2715 6.55209 42.3567 6.55209C42.4419 6.50927 42.4845 6.46644 42.5698 6.33796C42.655 6.20948 42.655 6.03818 42.655 5.9097C42.655 5.78122 42.6124 5.60991 42.5272 5.43861L42.2715 4.79621C42.1862 4.6249 42.1436 4.41077 42.1436 4.23946C42.1436 4.06816 42.1862 3.89685 42.2715 3.68272C42.3993 3.38294 42.6124 3.21163 42.8681 3.1688C43.1237 3.08315 43.3794 3.12598 43.6777 3.29728C43.976 3.46859 44.1464 3.63989 44.2317 3.89685C44.2743 4.15381 44.2317 4.41077 44.1038 4.75338L43.5072 4.58208C43.5925 4.36794 43.6351 4.23946 43.6351 4.11099C43.6351 3.98251 43.5925 3.89685 43.422 3.8112C43.3368 3.76837 43.2516 3.76837 43.1663 3.8112C43.0811 3.85403 42.9959 3.89685 42.9533 4.02533C42.9107 4.15381 42.8681 4.23946 42.8681 4.36794C42.8681 4.4536 42.9107 4.58208 42.9533 4.75338L43.209 5.39578C43.2942 5.60991 43.3368 5.86687 43.3794 6.081C43.3794 6.29514 43.3368 6.50927 43.209 6.7234C43.1237 6.89471 42.9959 7.02319 42.8681 7.10884C42.7402 7.19449 42.5698 7.23732 42.3993 7.28014C42.2289 7.28014 42.0584 7.23732 41.888 7.15167C41.5471 6.85188 41.334 6.63775 41.2488 6.33796Z" fill="#F96430"/>
    <path d="M45.6796 4.4541L46.2762 4.83954L44.1029 8.26566L43.5063 7.88022L45.6796 4.4541Z" fill="#F96430"/>
    <path d="M48.8346 6.68066L49.3034 7.10893L47.8119 9.63569L50.0704 7.79415L50.5817 8.22242L47.3006 10.7492L46.7466 10.2781L48.8346 6.68066Z" fill="#F96430"/>
    <path d="M51.4764 9.0791L51.9878 9.59302L49.0475 12.3767L48.5361 11.8628L51.4764 9.0791Z" fill="#F96430"/>
    <path d="M52.7124 11.3067L52.3289 10.7928L52.7551 10.4502L54.0334 12.0348L53.6073 12.3774L53.2238 11.9063L50.4966 14.0904L50.0278 13.5337L52.7124 11.3067Z" fill="#F96430"/>
    <path d="M54.9704 13.4473L55.3965 14.1325L52.4563 17.0019L52.0727 16.4451L52.7545 15.8027L52.371 15.2032L51.5188 15.5886L51.1353 14.989L54.9704 13.4473ZM53.0954 15.4601L54.3738 14.3038L52.7972 14.989L53.0954 15.4601Z" fill="#F96430"/>
    <path d="M13.3386 40.0001C13.296 39.786 13.0829 39.7003 12.8698 39.7431C12.6568 39.786 12.5716 40.0001 12.6142 40.2142C12.6568 40.4284 12.8698 40.514 13.0829 40.4712C13.296 40.4284 13.4238 40.1714 13.3386 40.0001Z" fill="#D4BA70"/>
    <path d="M16.406 43.8541C16.2781 43.6828 16.0225 43.6828 15.852 43.8113C15.6815 43.9398 15.6815 44.1967 15.8094 44.3681C15.9372 44.5394 16.1929 44.5394 16.3634 44.4109C16.5338 44.2824 16.5764 44.0254 16.406 43.8541Z" fill="#D4BA70"/>
    <path d="M20.4548 46.9381C20.327 46.7668 20.0713 46.7668 19.9008 46.8953C19.7304 47.0238 19.7304 47.2807 19.8582 47.452C19.9861 47.6233 20.2417 47.6233 20.4122 47.4949C20.5826 47.3664 20.5826 47.1094 20.4548 46.9381Z" fill="#D4BA70"/>
    <path d="M29.8713 49.3789C29.6582 49.3789 29.4878 49.5502 29.4878 49.7643C29.4878 49.9785 29.6582 50.1498 29.8713 50.1498C30.0844 50.1498 30.2548 49.9785 30.2548 49.7643C30.2548 49.5502 30.0844 49.3789 29.8713 49.3789Z" fill="#D4BA70"/>
    <path d="M24.844 48.7363C24.6309 48.7363 24.4604 48.9076 24.4604 49.1218C24.4604 49.3359 24.6309 49.5072 24.844 49.5072C25.057 49.5072 25.2275 49.3359 25.2275 49.1218C25.2275 48.9076 25.057 48.7363 24.844 48.7363Z" fill="#D4BA70"/>
    <path d="M46.6193 40.4712C46.8324 40.514 47.0454 40.4284 47.088 40.2142C47.1306 40.0001 47.0454 39.786 46.8324 39.7431C46.6193 39.7003 46.4062 39.786 46.3636 40.0001C46.2784 40.1714 46.4062 40.4284 46.6193 40.4712Z" fill="#D4BA70"/>
    <path d="M43.3381 44.4109C43.5086 44.5394 43.7217 44.5394 43.8921 44.3681C44.0199 44.1967 44.0199 43.9826 43.8495 43.8113C43.679 43.6828 43.466 43.6828 43.2955 43.8541C43.1251 44.0254 43.1677 44.2824 43.3381 44.4109Z" fill="#D4BA70"/>
    <path d="M39.2895 47.4948C39.46 47.6232 39.673 47.6232 39.8435 47.4519C39.9713 47.2806 39.9713 47.0665 39.8009 46.8952C39.6304 46.7239 39.4173 46.7667 39.2469 46.938C39.119 47.1093 39.119 47.3663 39.2895 47.4948Z" fill="#D4BA70"/>
    <path d="M34.8576 48.7363C34.6446 48.7363 34.4741 48.9076 34.4741 49.1218C34.4741 49.3359 34.6446 49.5072 34.8576 49.5072C35.0707 49.5072 35.2412 49.3359 35.2412 49.1218C35.2412 48.9076 35.0707 48.7363 34.8576 48.7363Z" fill="#D4BA70"/>
    <path d="M25.2267 11.3488C25.1841 11.3488 25.1841 11.3488 25.1415 11.3488L24.417 11.2203L23.7352 11.1347L23.3517 11.0919L23.0108 11.049L22.2864 11.0062C22.2438 11.0062 22.2012 11.0062 22.2012 11.0062C22.2438 10.9634 22.3716 10.8349 22.5847 10.7492C23.4369 10.4066 24.2892 10.1925 25.0988 9.97837C25.1841 9.97837 25.2693 9.93555 25.3545 9.93555C25.3971 9.93555 25.4397 9.93555 25.4824 9.93555C26.5903 10.1497 27.613 10.4923 28.2948 10.7492C28.3374 10.7492 28.38 10.7921 28.38 10.7921C28.2948 10.8349 28.167 10.9206 27.9965 10.9206L27.3999 11.0062L26.8034 11.0919C26.5477 11.1347 26.2494 11.1775 25.9937 11.2632C25.8659 11.306 25.738 11.306 25.6102 11.3488C25.4397 11.3488 25.3119 11.3488 25.2267 11.3488Z" fill="#D4BA70"/>
    <path d="M17.7269 13.5328C17.7269 13.5328 17.6843 13.5328 17.7269 13.5328C17.7269 13.4471 17.8548 13.3187 18.0252 13.1902L18.5792 12.8048C18.707 12.7191 18.8349 12.6334 18.9627 12.5906L19.1332 12.4621C19.3888 12.2908 19.6871 12.1195 19.9428 11.991C20.0707 11.9482 20.1559 11.8626 20.2837 11.8197C20.4116 11.7769 20.5394 11.7341 20.6672 11.6913L21.3917 11.6484H22.2439C22.3291 11.6484 22.4144 11.6484 22.4996 11.6484L23.0109 11.6913C23.1814 11.6913 23.3945 11.7341 23.5649 11.7341C23.6075 11.7341 23.6501 11.7769 23.6501 11.7769C23.6075 11.8626 23.4797 11.9482 23.3092 11.991L22.7553 12.2052L21.903 12.5906L21.0934 13.0189C20.9655 13.1045 20.8377 13.1474 20.7525 13.1474C19.9002 13.1902 18.9627 13.3187 17.8548 13.5328C17.7696 13.5328 17.7269 13.5328 17.7269 13.5328Z" fill="#D4BA70"/>
    <path d="M13.978 17.0453C13.978 16.9596 14.0633 16.7883 14.1911 16.6598L14.4468 16.4029C14.6598 16.1459 14.8729 15.9318 15.086 15.7177L15.2564 15.5464C15.3416 15.4607 15.4695 15.3322 15.5547 15.2466L16.0234 14.7755C16.1513 14.6898 16.2365 14.6042 16.3643 14.5613L17.0888 14.3472C17.2592 14.3044 17.4297 14.2616 17.6001 14.2187L17.8132 14.1759C18.1967 14.0903 18.5802 14.0046 19.0063 13.9618L19.262 13.9189H19.3472C19.3046 14.0046 19.2194 14.1331 19.049 14.2187C18.4524 14.6042 17.8558 15.1181 17.1314 15.7605C17.0462 15.8461 16.9183 15.9318 16.8331 15.9318C16.4496 16.0603 16.1087 16.1887 15.7252 16.3172L15.5121 16.4029C15.3416 16.4885 15.1712 16.5314 15.0007 16.617L14.4894 16.8311L14.0633 17.0453C14.0206 17.0453 14.0206 17.0453 13.978 17.0453Z" fill="#D4BA70"/>
    <path d="M11.2944 21.4132C11.2944 21.3276 11.2944 21.1563 11.3797 20.985C11.7206 20.3426 12.1467 19.486 12.7007 18.7152C12.7859 18.5867 12.8711 18.501 12.9563 18.4154L13.5955 18.0299L13.9364 17.8586L14.4052 17.6017C14.5756 17.516 14.7461 17.4304 14.9165 17.3447L15.5983 17.0449C15.6409 17.0449 15.6409 17.0449 15.6836 17.0449C15.6836 17.1306 15.6409 17.2591 15.4705 17.4304L15.2574 17.6445L14.6608 18.3725L14.1069 19.1006L13.9364 19.3576C13.8512 19.486 13.766 19.5717 13.6808 19.6145C13.4677 19.743 13.2972 19.8715 13.1268 19.9571L12.9137 20.1284C12.7859 20.2141 12.6154 20.2997 12.4876 20.4282L12.4024 20.471C12.0615 20.728 11.6779 21.0278 11.337 21.3276C11.2944 21.3704 11.2944 21.4132 11.2944 21.4132Z" fill="#D4BA70"/>
    <path d="M34.7726 11.3487C34.6874 11.3487 34.6021 11.3487 34.5169 11.3059C34.3891 11.263 34.2612 11.263 34.1334 11.2202C33.8777 11.1774 33.5794 11.0917 33.3237 11.0489L32.7272 10.9632L32.1306 10.8776C31.9601 10.8776 31.7897 10.7919 31.7471 10.7491C31.7471 10.7491 31.7471 10.7491 31.7897 10.7063C32.4715 10.4493 33.4942 10.1067 34.6021 9.89258C34.6447 9.89258 34.6874 9.89258 34.73 9.89258C34.8152 9.89258 34.9004 9.89258 34.9856 9.9354C35.7953 10.1495 36.6475 10.4065 37.4998 10.7063C37.7129 10.7919 37.8407 10.8776 37.8833 10.9632C37.8833 10.9632 37.8833 10.9632 37.8407 10.9632L37.0737 11.0061L36.6475 11.0917L36.264 11.1345L35.5396 11.2202L34.8152 11.3487C34.8152 11.3487 34.8152 11.3487 34.7726 11.3487Z" fill="#D4BA70"/>
    <path d="M42.2707 13.5328H42.2281C41.1202 13.3187 40.1827 13.1902 39.3304 13.1474C39.2452 13.1474 39.1174 13.1045 38.9895 13.0189L38.1799 12.5906L37.3276 12.2052L36.731 11.991C36.5606 11.9054 36.4327 11.8197 36.3901 11.7769C36.3901 11.7769 36.3901 11.7769 36.4754 11.7341C36.6458 11.7341 36.8163 11.6913 37.0293 11.6913L37.5833 11.6484C37.6685 11.6484 37.7537 11.6484 37.839 11.6484H38.6912L39.4156 11.6913C39.5435 11.6913 39.6713 11.7341 39.7992 11.8197C39.927 11.8626 40.0122 11.9482 40.1401 11.991C40.3957 12.1195 40.694 12.2908 40.9497 12.4621L41.1628 12.5906C41.2906 12.6763 41.4185 12.7619 41.5463 12.8048L42.1003 13.1902C42.1855 13.2758 42.2707 13.4471 42.2707 13.5328Z" fill="#D4BA70"/>
    <path d="M46.0218 17.0453C46.0218 17.0453 45.9792 17.0453 45.9366 17.0025L45.5957 16.8311L45.0843 16.617C44.9139 16.5314 44.7434 16.4885 44.5729 16.4029L44.3173 16.3172C43.9338 16.1887 43.5929 16.0174 43.2093 15.9318C43.1241 15.889 42.9963 15.8461 42.911 15.7605C42.1866 15.1181 41.59 14.647 40.9935 14.2187C40.823 14.0903 40.7378 13.9618 40.7378 13.9189H40.7804L41.0361 13.9618C41.4196 14.0046 41.8031 14.0903 42.1866 14.1759L42.3997 14.2187C42.5701 14.2616 42.7406 14.3044 42.911 14.3472L43.6355 14.5613C43.7207 14.6042 43.8485 14.647 43.9764 14.7755L44.4451 15.2466C44.5303 15.3322 44.6582 15.4607 44.7434 15.5464L44.9139 15.7177C45.1269 15.9318 45.34 16.1887 45.553 16.4029L45.8087 16.6598C45.9366 16.7883 46.0218 16.9596 46.0218 17.0453Z" fill="#D4BA70"/>
    <path d="M48.7496 21.4134C48.7496 21.4134 48.707 21.4134 48.6644 21.3705C48.3235 21.0708 47.94 20.771 47.5991 20.514L47.5138 20.4712C47.386 20.3855 47.2155 20.257 47.0877 20.1714L46.8746 20.0001C46.7042 19.8716 46.4911 19.7431 46.3207 19.6147C46.2354 19.5718 46.1502 19.4862 46.065 19.3577L45.8945 19.1007L45.3406 18.3727L44.744 17.6446L44.5309 17.4305C44.4031 17.302 44.3179 17.1307 44.3179 17.0879H44.3605L45.0423 17.3877C45.2127 17.4733 45.3832 17.559 45.5536 17.6446L46.0224 17.9016L46.3207 18.0729L46.9599 18.4583C47.0451 18.5012 47.1303 18.6296 47.2155 18.7581C47.7695 19.5718 48.1956 20.3855 48.5365 21.0279C48.7496 21.1564 48.7496 21.3277 48.7496 21.4134Z" fill="#D4BA70"/>
    <path d="M88.6613 38.6842H92.4157L84.8033 21H83.6382L76 38.6842H79.7544L80.7124 36.4211H87.7033L88.6613 38.6842ZM86.4863 33.5H81.9293L84.2078 27.6316L86.4863 33.5Z" fill="white"/>
    <path d="M110.207 38.6842L105.365 31.8684C107.229 30.9211 108.369 29.1316 108.369 26.9211C108.369 23.5789 105.779 21.3158 102.206 21.3158H95.7851V38.6842H99.2805V32.5526H101.844L106.271 38.6842H110.207ZM99.2805 24.4474H102.206C103.786 24.4474 104.796 25.4474 104.796 26.9211C104.796 28.4211 103.838 29.4211 102.206 29.4211H99.2805V24.4474Z" fill="white"/>
    <path d="M116.583 38.6842H120.079V24.5263H125.568V21.3158H111.12V24.5263H116.583V38.6842Z" fill="white"/>
    <path d="M142.656 21.3158H138.798L135.043 28.2105L131.263 21.3158H127.379L133.283 31.8684V38.6842H136.778V31.8421L142.656 21.3158Z" fill="white"/>
    <path d="M161.687 21L154.463 30.3947L147.239 21H146.1V38.6842H149.595V29.4211L153.893 34.8947H155.033L159.331 29.4211V38.6842H162.826V21H161.687Z" fill="white"/>
    <path d="M181.542 21.3158H177.685L173.93 28.2105L170.15 21.3158H166.266L172.169 31.8684V38.6842H175.665V31.8421L181.542 21.3158Z" fill="white"/>
    <path d="M183.416 35.1579C184.737 37.5 187.119 39 190.019 39C193.437 39 196 36.9737 196 33.7895C196 31.4474 194.654 30 191.78 28.7105L189.838 27.8421C188.388 27.1842 187.844 26.7632 187.844 25.8421C187.844 24.7632 188.75 24.1579 189.967 24.1579C191.262 24.1579 192.349 24.8158 193.23 26.1579L195.612 24.2895C194.55 22.2895 192.582 21 189.967 21C186.731 21 184.297 22.9474 184.297 25.9211C184.297 28.2368 185.824 29.7368 188.439 30.9211L190.278 31.7632C191.909 32.5263 192.453 32.8947 192.453 33.9211C192.453 35.1053 191.547 35.8421 190.019 35.8421C188.155 35.8421 186.938 34.8684 185.824 33.3158L183.416 35.1579Z" fill="white"/>
    <defs>
        <radialGradient id="paint2_radial" cx="0" cy="0" r="1" gradientUnits="userSpaceOnUse" gradientTransform="translate(30.0071 30.0862) scale(23.6436 23.7621)">
            <stop stop-color="#1B58BB"/>
            <stop offset="1" stop-color="#153C89"/>
        </radialGradient>
        <radialGradient id="paint1_radial" cx="0" cy="0" r="1" gradientUnits="userSpaceOnUse" gradientTransform="translate(30.0082 29.8351) scale(14.1025 14.1732)">
            <stop stop-color="#F59C23"/>
            <stop offset="1" stop-color="#EA5533"/>
        </radialGradient>
    </defs>
</svg>
