<svg width="36" height="30" viewBox="0 0 36 30" fill="none" xmlns="http://www.w3.org/2000/svg"><path d="M35 29H1M1 29V6.989M13.054 3.411L21.245 1M1 6.989l7.573-2.256M1 10.022l20.245-5.289M21.246 1v28M21.246 1l2.472.622M23.718 1.622V29M35 29V13.444M35 13.444L23.718 8.311M31.059 11.656V8.933M28.586 10.489v-3.19M10.66 4.422c.17 0 .308-.14.308-.311a.31.31 0 00-.309-.311.31.31 0 00-.309.311.31.31 0 00.31.311zM11.2 16.322l-.773-2.41c-.386-1.09-1.468-1.634-2.55-1.245l-.309.078c-1.082.388-1.623 1.477-1.236 2.566l1.777 5.445c.155.389.386.777.773 1.01M7.182 18.033l3.787-1.244M13.982 15.622l-.232-.078c-1.005-.466-2.241.078-2.627 1.09l-2.241 5.288c-.464 1.011.077 2.256 1.082 2.645l.231.077c1.005.467 2.241-.077 2.628-1.088l2.24-5.29a2.102 2.102 0 00-1.081-2.644zM9.963 19.2l3.941 1.711" stroke="#F96430" stroke-width="1.6" stroke-miterlimit="10"/></svg>
