<svg width="31" height="30" viewBox="0 0 31 30" fill="none" xmlns="http://www.w3.org/2000/svg"><path d="M9.8 1.403l-.1 13.749M9.7 17.159c.552 0 1-.45 1-1.004s-.448-1.004-1-1.004-1 .45-1 1.004.448 1.003 1 1.003zM18 1.604l-.1 9.232M17.9 12.944c.552 0 1-.45 1-1.004s-.448-1.003-1-1.003-1 .449-1 1.003c0 .554.448 1.004 1 1.004zM11.6 24.083l4.2-3.512.1-4.215M8.6 22.979l4.2-3.512.1-9.634M15.9 16.255c.552 0 1-.449 1-1.003 0-.554-.448-1.004-1-1.004s-1 .45-1 1.004.448 1.003 1 1.003zM12.9 9.833l2.6-1.505M15.5 8.327l.1-7.225M12.6 1.002v6.723" stroke="#F96430" stroke-width="1.6" stroke-miterlimit="10"/><path d="M30 18.262c0-.3-.1-.602-.3-.903l-2.3-3.211c-.5-.703-.8-1.405-.9-2.208-1.2-7.325-6-10.838-12.9-10.938C6.3.902 1.1 4.815 1 12.14c0 2.007 0 5.018.9 7.225.5 1.305 1.6 2.308 3 2.61l5 1.304c1.2.301 2.3 1.003 3 2.007l1.9 2.408c.6.803 1.6 1.305 2.7 1.305h5.8c.6 0 1.2-.2 1.8-.502l.1-.1c.5-.301.9-.903.9-1.505l.5-5.82c0-.503.4-.603.9-.904l2-1.104c.5-.2.5-.803.5-.803z" stroke="#F96430" stroke-width="1.6" stroke-miterlimit="10"/></svg>
