<svg width="30" height="30" viewBox="0 0 30 30" fill="none" xmlns="http://www.w3.org/2000/svg"><path d="M14.1 19.2L9.9 15c-.5-.5-.4-1.3 0-1.7l.8-.8M17.5 15.8L12 10.3c-.5-.5-1.2-.5-1.7 0s-.5 1.2 0 1.7l5.5 5.5M19.6 26.4l-1.2-1.3c-.8-.7-2.5-.7-3.4-1.7l-5.1-5c-.5-.5-.4-1.3 0-1.7l.8-.8M19.6 14.5l-4.7-4.7c-.5-.5-1.2-.5-1.7 0l-.8.9" stroke="#F96430" stroke-width="1.6" stroke-miterlimit="10"/><path d="M26 20.1l-1.3-1.3c-.7-.7-.9-1.5-1.1-2.5-.3-1.3-.9-2.1-1.4-2.6l-2.1-2.1c-.6-.6-1.3-.4-1.7 0l-.9.8" stroke="#F96430" stroke-width="1.6" stroke-miterlimit="10"/><path d="M21.3 29l-2.1-2.2 7.2-7.2 2.1 2.2M3.5 10.3l1.3 1.3c.7.7.7 2.4 1.7 3.4l1.7 1.7M9.9 3.9l1.3 1.3c.7.7 1.5.9 2.5 1.1 1.3.3 2.1.9 2.6 1.4l2.1 2.1" stroke="#F96430" stroke-width="1.6" stroke-miterlimit="10"/><path d="M1 8.6l2.1 2.1 7.2-7.2-2.1-2.1M9.9 26l1.3-1.3c.5-.5 1.5-.7 2.4-1M3.5 19.6l1.3-1.2c.7-.7.9-1.4 1.1-2.3" stroke="#F96430" stroke-width="1.6" stroke-miterlimit="10"/><path d="M8.2 28.5l2.1-2.1-7.2-7.2L1 21.3M26 9.9l-1.3 1.3c-.5.5-.7 1.5-1 2.4M19.6 3.5l-1.2 1.3c-.7.7-1.4.9-2.3 1.1" stroke="#F96430" stroke-width="1.6" stroke-miterlimit="10"/><path d="M28.5 8.2l-2.1 2.1-7.2-7.2L21.3 1" stroke="#F96430" stroke-width="1.6" stroke-miterlimit="10"/></svg>
