<svg width="32" height="30" viewBox="0 0 32 30" fill="none" xmlns="http://www.w3.org/2000/svg"><path d="M7.2 23.1H13M11.1 5.6h15.6c1.1 0 2 .9 2 2v18.2M3.3 1h14.3c1.1 0 2 .9 2 2v2.6" stroke="#F96430" stroke-width="1.6" stroke-miterlimit="10"/><path d="M15.6 29c-1.4 0-2.6-1.2-2.6-2.6V7.5c0-1.1-.9-2-2-2s-2 .9-2 2v13.7c0 1.1-.9 2-2 2s-2-.9-2-2V3c0-1.1-.9-2-2-2s-2 .9-2 2v2h3.9" stroke="#F96430" stroke-width="1.6" stroke-miterlimit="10"/><path d="M18.2 26.4v-.7h13v.7c0 1.4-1.2 2.6-2.6 2.6h-13c1.5 0 2.6-1.2 2.6-2.6z" stroke="#F96430" stroke-width="1.6" stroke-miterlimit="10"/></svg>
