<svg width="48" height="30" viewBox="0 0 48 30" fill="none" xmlns="http://www.w3.org/2000/svg"><path d="M25.618 23.9H20.91c-.196 0-.392-.1-.588-.2l-3.335-3.4c-.196-.1-.392-.3-.588-.3L5.512 18.2c-.295 0-.393-.1-.49-.4-1.276-4.9-2.649-9.7-3.924-14.5C1 3.1 1 3 1 2.9h5.1c.196 0 .393.1.49.3 1.766 2.3 3.531 4.7 5.199 7 .196.2.294.3.588.3H16.4c.196 0 .392-.1.588-.2L20.224 7c.196-.2.392-.3.588-.3h4.708V4.8h5.59M25.618 29v-5.1M47 24.2c0 .7-.098 1.4-.392 2-.883 1.7-2.256 2.7-4.218 2.7H19.832M38.86 23.9v5M31.307 4.8v1.9h3.237c1.373.1 2.55.8 3.433 1.9 1.373 1.8 2.648 3.6 3.923 5.4.196.2.294.3.588.4 2.452.5 4.12 2.7 3.825 5.2-.196 2.4-2.256 4.3-4.708 4.3H38.86M13.456 1H43.47M38.86 24l-13.242-.1" stroke="#F96430" stroke-width="1.6" stroke-miterlimit="10"/><path d="M31.307 8.7v5.7h8.337M28.56 4.8V1" stroke="#F96430" stroke-width="1.6" stroke-miterlimit="10"/></svg>
