<svg width="12" height="12" viewBox="0 0 12 12" fill="none" xmlns="http://www.w3.org/2000/svg">
<path d="M6.675 5.1C6.675 5.1 6.75 5.025 6.675 5.1V5.1ZM2.7 3.9H0.15V12H2.7V3.9ZM2.925 1.425C2.85 0.6 2.325 0 1.425 0C0.6 0 0 0.6 0 1.425C0 2.175 0.525 2.85 1.425 2.85C2.325 2.775 2.925 2.175 2.925 1.425ZM12 7.35C12 4.875 10.725 3.75 9.075 3.75C7.65 3.75 7.05 4.5 6.75 5.025V3.9H4.125C4.125 4.65 4.125 12 4.125 12H6.75V7.5C6.75 7.275 6.75 7.05 6.825 6.825C6.975 6.375 7.425 5.85 8.175 5.85C9.075 5.85 9.45 6.6 9.45 7.65V12H12V7.35Z" fill="#52545A"/>
</svg>
