<svg width="240" height="55" viewBox="0 0 218 50" fill="none"
    xmlns="http://www.w3.org/2000/svg">
    <path d="M92.9608 0.0280545C97.6459 0.0280545 101.658 2.32853 103.874 6.172L100.059 8.86523C98.2911 6.08783 95.9345 4.71316 92.9608 4.71316C88.3318 4.71316 84.9652 8.16387 84.9652 12.9051C84.9652 17.6463 88.3318 21.0128 92.9608 21.0128C95.9345 21.0128 98.2911 19.6382 100.059 16.8608L103.874 19.554C101.742 23.4255 97.702 25.698 92.9327 25.698C85.6666 25.8382 79.6068 19.9468 79.7471 12.877C79.6349 5.77923 85.7507 -0.112218 92.9608 0.0280545ZM111.898 0.476927H120.005C127.861 0.392763 133.64 5.47063 133.528 12.7929C133.64 19.9748 127.861 25.3613 120.005 25.2491H111.898V0.476927ZM119.977 20.6762C124.971 20.6762 128.309 17.5621 128.309 12.7929C128.309 7.99554 125.055 5.04982 119.977 5.04982H116.975V20.6481H119.977V20.6762ZM143.291 17.5902C144.918 19.8065 146.657 21.1812 149.378 21.1812C151.595 21.1812 152.913 20.1432 152.913 18.4318C152.913 16.973 152.128 16.44 149.771 15.3458L147.106 14.1395C143.319 12.4562 141.102 10.3241 141.102 7.01363C141.102 2.7774 144.637 0 149.322 0C153.11 0 155.971 1.8516 157.514 4.68511L154.064 7.35029C152.801 5.44258 151.202 4.48873 149.322 4.48873C147.555 4.48873 146.236 5.35842 146.236 6.90142C146.236 8.21998 147.022 8.80912 149.126 9.76298L151.931 10.9974C156.083 12.877 158.019 14.925 158.019 18.2635C158.019 22.8083 154.316 25.698 149.35 25.698C145.142 25.698 141.691 23.5658 139.784 20.2273L143.291 17.5902ZM177.994 0.0280545C182.679 0.0280545 186.691 2.32853 188.907 6.172L185.092 8.86523C183.324 6.08783 180.968 4.71316 177.994 4.71316C173.365 4.71316 169.999 8.16387 169.999 12.9051C169.999 17.6463 173.365 21.0128 177.994 21.0128C180.968 21.0128 183.324 19.6382 185.092 16.8608L188.907 19.554C186.775 23.4255 182.707 25.698 177.938 25.698C170.7 25.8382 164.612 19.9468 164.752 12.877C164.668 5.77923 170.784 -0.112218 177.994 0.0280545ZM211.183 22.0228H201.055L199.68 25.2491H194.21L205.291 0.0280545H206.974L218 25.2491H212.557L211.183 22.0228ZM206.105 9.48243L202.794 17.8427H209.387L206.105 9.48243ZM66.4212 34.1424H67.2909V39.5288H66.4212V34.1424ZM72.0321 39.5288H71.1624V37.1442C71.1624 36.5831 70.7977 36.2184 70.2927 36.2184C69.7597 36.2184 69.3669 36.6112 69.3669 37.1442V39.5288H68.4972V35.517H69.2827V35.9098C69.5913 35.6012 69.9841 35.4329 70.4891 35.4329C71.4149 35.4329 71.976 36.0781 71.976 37.032V39.5288H72.0321ZM75.6231 39.5288C75.3425 39.585 75.1181 39.613 74.9217 39.613C73.9959 39.613 73.4348 39.1641 73.4348 38.2103V36.2465H72.7895V35.517H73.4348V34.479H74.3045V35.517H75.4828V36.2465H74.3045V38.1261C74.3045 38.6311 74.585 38.8275 75.09 38.8275C75.2022 38.8275 75.3706 38.7994 75.6231 38.7994V39.5288ZM77.0258 37.7895C77.138 38.4347 77.643 38.8275 78.3443 38.8275C78.7652 38.8275 79.1579 38.6592 79.5226 38.3506L79.9435 38.9397C79.4946 39.3605 78.9615 39.5849 78.3443 39.5849C77.1099 39.5849 76.1841 38.6872 76.1841 37.5089C76.1561 36.3587 77.11 35.3768 78.2602 35.4048C79.3263 35.4048 80.1118 36.1904 80.1118 37.2284C80.1118 37.3967 80.0837 37.565 80.0557 37.7614H77.0258V37.7895ZM79.214 37.1161C79.214 36.499 78.7371 36.1342 78.176 36.1342C77.6149 36.1342 77.1661 36.527 77.0258 37.1161H79.214ZM83.3381 36.2745H83.0856C82.4123 36.2745 81.9073 36.6673 81.9073 37.3967V39.5288H81.0376V35.517H81.8231V36.0501C82.1037 35.6854 82.5245 35.489 83.0014 35.489C83.1136 35.489 83.2258 35.517 83.3381 35.517V36.2745ZM87.6023 39.5288H86.7607V37.1442C86.7607 36.5831 86.4241 36.2184 85.891 36.2184C85.358 36.2184 84.9652 36.6112 84.9652 37.1442V39.5288H84.0955V35.517H84.8811V35.9098C85.1897 35.6012 85.5824 35.4329 86.0874 35.4329C87.0132 35.4329 87.5743 36.0781 87.5743 37.032V39.5288H87.6023ZM91.9789 39.5288H91.1933V39.08C90.9128 39.4166 90.4639 39.613 89.9028 39.613C89.0612 39.613 88.5001 39.1361 88.5001 38.4628C88.5001 37.7614 89.0612 37.3125 89.987 37.3125H91.1092V37.06C91.1092 36.499 90.8006 36.1903 90.2395 36.1903C89.7906 36.1903 89.4539 36.3867 89.1173 36.7795L88.6123 36.2745C89.0051 35.6854 89.5942 35.4048 90.2956 35.4048C91.2775 35.4048 91.9227 35.994 91.9227 37.0881V39.5288H91.9789ZM91.1092 37.9297H90.0711C89.6223 37.9297 89.3698 38.0981 89.3698 38.4067C89.3698 38.7433 89.6503 38.9397 90.0711 38.9397C90.6603 38.9397 91.1092 38.5469 91.1092 37.9858V37.9297ZM95.5698 39.5288C95.2893 39.585 95.0649 39.613 94.8685 39.613C93.9427 39.613 93.3816 39.1641 93.3816 38.2103V36.2465H92.7363V35.517H93.3816V34.479H94.2513V35.517H95.4296V36.2465H94.2513V38.1261C94.2513 38.6311 94.5318 38.8275 95.0368 38.8275C95.149 38.8275 95.3173 38.7994 95.5698 38.7994V39.5288ZM96.8603 33.441C97.1689 33.441 97.4495 33.6935 97.4495 34.0021C97.4495 34.3107 97.197 34.5632 96.8603 34.5632C96.5237 34.5632 96.2712 34.3107 96.2712 34.0021C96.2712 33.6935 96.5237 33.441 96.8603 33.441ZM96.4115 35.517H97.2812V39.5288H96.4115V35.517ZM100.367 35.4329C101.545 35.4048 102.527 36.3867 102.499 37.5089C102.527 38.6311 101.545 39.6411 100.367 39.613C99.2169 39.6411 98.235 38.6592 98.2631 37.5089C98.235 36.3587 99.2169 35.4048 100.367 35.4329ZM100.395 36.2184C99.6939 36.2184 99.1608 36.7795 99.1608 37.537C99.1608 38.2944 99.6939 38.8275 100.395 38.8275C101.097 38.8275 101.63 38.2664 101.63 37.537C101.63 36.7795 101.069 36.2184 100.395 36.2184ZM106.988 39.5288H106.118V37.1442C106.118 36.5831 105.754 36.2184 105.249 36.2184C104.716 36.2184 104.323 36.6112 104.323 37.1442V39.5288H103.453V35.517H104.239V35.9098C104.547 35.6012 104.94 35.4329 105.445 35.4329C106.371 35.4329 106.932 36.0781 106.932 37.032V39.5288H106.988ZM111.365 39.5288H110.579V39.08C110.298 39.4166 109.85 39.613 109.289 39.613C108.447 39.613 107.886 39.1361 107.886 38.4628C107.886 37.7614 108.447 37.3125 109.373 37.3125H110.495V37.06C110.495 36.499 110.186 36.1903 109.625 36.1903C109.176 36.1903 108.84 36.3867 108.503 36.7795L107.998 36.2745C108.391 35.6854 108.98 35.4048 109.681 35.4048C110.663 35.4048 111.308 35.994 111.308 37.0881V39.5288H111.365ZM110.495 37.9297H109.457C109.008 37.9297 108.755 38.0981 108.755 38.4067C108.755 38.7433 109.036 38.9397 109.457 38.9397C110.046 38.9397 110.495 38.5469 110.495 37.9858V37.9297ZM112.543 33.413H113.413V39.5288H112.543V33.413ZM119.5 34.0582C120.482 34.0582 121.352 34.5351 121.801 35.2926L121.156 35.7695C120.763 35.1804 120.23 34.8437 119.5 34.8437C118.406 34.8437 117.565 35.6854 117.565 36.8356C117.565 37.9858 118.406 38.8275 119.5 38.8275C120.202 38.8275 120.763 38.4908 121.156 37.9017L121.801 38.3786C121.352 39.1361 120.482 39.613 119.5 39.613C117.957 39.6411 116.639 38.3786 116.667 36.8356C116.639 35.2926 117.957 34.0302 119.5 34.0582ZM123.204 33.441C123.512 33.441 123.793 33.6935 123.793 34.0021C123.793 34.3107 123.54 34.5632 123.204 34.5632C122.867 34.5632 122.614 34.3107 122.614 34.0021C122.614 33.6935 122.895 33.441 123.204 33.441ZM122.783 35.517H123.652V39.5288H122.783V35.517ZM128.59 35.517L126.654 39.613H126.374L124.438 35.517H125.364L126.542 38.1542L127.72 35.517H128.59ZM129.796 33.441C130.105 33.441 130.386 33.6935 130.386 34.0021C130.386 34.3107 130.133 34.5632 129.796 34.5632C129.46 34.5632 129.207 34.3107 129.207 34.0021C129.207 33.6935 129.46 33.441 129.796 33.441ZM129.347 35.517H130.217V39.5288H129.347V35.517ZM131.452 33.413H132.321V39.5288H131.452V33.413ZM135.884 34.1424H137.567C139.335 34.1424 140.485 35.2365 140.485 36.8356C140.485 38.4067 139.307 39.5288 137.567 39.5288H135.884V34.1424ZM137.567 38.7433C138.802 38.7433 139.615 37.9578 139.615 36.8076C139.615 35.6573 138.83 34.8998 137.567 34.8998H136.754V38.7433H137.567ZM142.112 37.7895C142.225 38.4347 142.73 38.8275 143.431 38.8275C143.852 38.8275 144.244 38.6592 144.609 38.3506L145.03 38.9397C144.581 39.3605 144.048 39.5849 143.431 39.5849C142.196 39.5849 141.271 38.6872 141.271 37.5089C141.243 36.3587 142.196 35.3768 143.347 35.4048C144.413 35.4048 145.198 36.1904 145.198 37.2284C145.198 37.3967 145.17 37.565 145.142 37.7614H142.112V37.7895ZM144.301 37.1161C144.301 36.499 143.824 36.1342 143.263 36.1342C142.701 36.1342 142.253 36.527 142.112 37.1161H144.301ZM147.134 35.517H148.088V36.2465H147.134V39.5008H146.264V36.2465H145.703V35.517H146.264V34.7035C146.264 33.7777 146.797 33.3007 147.695 33.3007C147.92 33.3007 148.088 33.3288 148.256 33.3849V34.1143C148.116 34.0863 148.004 34.0863 147.92 34.0863C147.387 34.0863 147.134 34.2546 147.134 34.7876V35.517ZM149.378 37.7895C149.491 38.4347 149.996 38.8275 150.697 38.8275C151.118 38.8275 151.511 38.6592 151.875 38.3506L152.296 38.9397C151.847 39.3605 151.314 39.5849 150.697 39.5849C149.463 39.5849 148.537 38.6872 148.537 37.5089C148.509 36.3587 149.463 35.3768 150.613 35.4048C151.679 35.4048 152.464 36.1904 152.464 37.2284C152.464 37.3967 152.436 37.565 152.408 37.7614H149.378V37.7895ZM151.567 37.1161C151.567 36.499 151.09 36.1342 150.529 36.1342C149.968 36.1342 149.519 36.527 149.378 37.1161H151.567ZM156.897 39.5288H156.055V37.1442C156.055 36.5831 155.691 36.2184 155.186 36.2184C154.653 36.2184 154.26 36.6112 154.26 37.1442V39.5288H153.39V35.517H154.176V35.9098C154.484 35.6012 154.877 35.4329 155.382 35.4329C156.308 35.4329 156.869 36.0781 156.869 37.032V39.5288H156.897ZM158.216 38.2944C158.552 38.6591 158.917 38.8555 159.338 38.8555C159.703 38.8555 159.983 38.6872 159.983 38.4067C159.983 38.1822 159.815 38.07 159.422 37.9017L159.001 37.7333C158.3 37.4528 157.963 37.1161 157.963 36.5551C157.963 35.8256 158.552 35.4048 159.366 35.4048C159.955 35.4048 160.404 35.6012 160.741 36.022L160.264 36.5551C160.011 36.3026 159.674 36.1342 159.338 36.1342C159.001 36.1342 158.805 36.2745 158.805 36.527C158.805 36.7234 158.945 36.8356 159.338 37.0039L159.731 37.1723C160.488 37.4809 160.825 37.8175 160.825 38.3786C160.825 38.7714 160.684 39.0519 160.404 39.2763C160.123 39.5008 159.759 39.5849 159.338 39.5849C158.664 39.5849 158.075 39.2764 157.711 38.7994L158.216 38.2944ZM162.424 37.7895C162.536 38.4347 163.041 38.8275 163.742 38.8275C164.163 38.8275 164.556 38.6592 164.921 38.3506L165.341 38.9397C164.893 39.3605 164.36 39.5849 163.742 39.5849C162.508 39.5849 161.582 38.6872 161.582 37.5089C161.554 36.3587 162.508 35.3768 163.658 35.4048C164.724 35.4048 165.51 36.1904 165.51 37.2284C165.51 37.3967 165.482 37.565 165.454 37.7614H162.424V37.7895ZM164.612 37.1161C164.612 36.499 164.135 36.1342 163.574 36.1342C163.013 36.1342 162.564 36.527 162.424 37.1161H164.612ZM169.017 37.9858C169.381 38.5189 169.802 38.8555 170.419 38.8555C170.98 38.8555 171.345 38.575 171.345 38.0981C171.345 37.7053 171.121 37.565 170.56 37.2845L169.97 37.0039C169.185 36.6392 168.708 36.2184 168.708 35.517C168.708 34.6474 169.465 34.0582 170.391 34.0582C171.149 34.0582 171.794 34.451 172.131 35.0121L171.513 35.489C171.233 35.0682 170.84 34.8437 170.391 34.8437C169.942 34.8437 169.578 35.0682 169.578 35.489C169.606 35.9098 169.802 35.994 170.335 36.2465L170.952 36.527C171.822 36.9198 172.243 37.3406 172.243 38.07C172.243 38.9958 171.485 39.6411 170.447 39.6411C169.578 39.6411 168.82 39.1922 168.427 38.4628L169.017 37.9858ZM173.253 35.517H174.094V37.9017C174.094 38.4628 174.487 38.8275 174.992 38.8275C175.497 38.8275 175.862 38.4628 175.862 37.9017V35.517H176.732V37.8456C176.732 38.9116 175.974 39.613 174.992 39.613C173.982 39.613 173.253 38.9116 173.253 37.8456V35.517ZM180.154 39.613C179.621 39.613 179.144 39.3886 178.808 39.0239V40.9877H177.938V35.517H178.723V36.0781C179.004 35.6573 179.537 35.4329 180.126 35.4329C181.248 35.4329 182.09 36.3306 182.09 37.5089C182.118 38.7153 181.276 39.613 180.154 39.613ZM180.014 36.2184C179.397 36.2184 178.808 36.6392 178.808 37.537C178.808 38.4067 179.397 38.8555 180.014 38.8555C180.687 38.8555 181.248 38.3225 181.248 37.537C181.248 36.7514 180.715 36.2184 180.014 36.2184ZM185.288 39.613C184.755 39.613 184.278 39.3886 183.942 39.0239V40.9877H183.072V35.517H183.857V36.0781C184.138 35.6573 184.671 35.4329 185.26 35.4329C186.382 35.4329 187.224 36.3306 187.224 37.5089C187.252 38.7153 186.438 39.613 185.288 39.613ZM185.148 36.2184C184.531 36.2184 183.942 36.6392 183.942 37.537C183.942 38.4067 184.531 38.8555 185.148 38.8555C185.821 38.8555 186.382 38.3225 186.382 37.537C186.382 36.7514 185.849 36.2184 185.148 36.2184ZM190.114 35.4329C191.292 35.4048 192.274 36.3867 192.246 37.5089C192.274 38.6311 191.292 39.6411 190.114 39.613C188.963 39.6411 187.981 38.6592 188.01 37.5089C187.981 36.3587 188.963 35.4048 190.114 35.4329ZM190.114 36.2184C189.412 36.2184 188.879 36.7795 188.879 37.537C188.879 38.2944 189.412 38.8275 190.114 38.8275C190.815 38.8275 191.348 38.2664 191.348 37.537C191.348 36.7795 190.815 36.2184 190.114 36.2184ZM195.5 36.2745H195.248C194.574 36.2745 194.069 36.6673 194.069 37.3967V39.5288H193.2V35.517H193.985V36.0501C194.266 35.6854 194.687 35.489 195.163 35.489C195.276 35.489 195.388 35.517 195.5 35.517V36.2745ZM198.67 39.5288C198.39 39.585 198.165 39.613 197.969 39.613C197.043 39.613 196.482 39.1641 196.482 38.2103V36.2465H195.837V35.517H196.482V34.479H197.352V35.517H198.53V36.2465H197.352V38.1261C197.352 38.6311 197.632 38.8275 198.137 38.8275C198.249 38.8275 198.418 38.7994 198.67 38.7994V39.5288ZM70.3769 46.4864C70.0683 46.9352 69.8719 47.2438 69.7316 47.4122L70.6013 48.4502H69.6194L69.2266 47.9733C68.8058 48.338 68.3569 48.5343 67.7678 48.5343C66.8139 48.5343 66.1406 47.9452 66.1406 47.1597C66.1406 46.8791 66.2248 46.6266 66.3931 46.4022C66.5614 46.1778 66.842 45.8972 67.2628 45.5886C66.9262 45.1397 66.7578 44.8031 66.7578 44.4103C66.7578 43.709 67.2628 43.232 67.9922 43.232C68.6936 43.232 69.1986 43.6809 69.1986 44.3262C69.1986 44.8031 68.9461 45.2239 68.3289 45.7008L69.2547 46.823C69.3108 46.7389 69.4791 46.4864 69.7316 46.1217C69.7877 46.0375 69.8719 45.8972 69.9841 45.757L70.6294 46.2058L70.3769 46.4864ZM67.6836 46.1217C67.4031 46.3461 67.2067 46.5144 67.0945 46.6547C67.0103 46.7669 66.9542 46.9072 66.9542 47.0755C66.9542 47.4963 67.2909 47.8049 67.7678 47.8049C68.0764 47.8049 68.385 47.6647 68.6936 47.3841L67.6836 46.1217ZM67.852 45.1678C68.2447 44.8592 68.385 44.6628 68.385 44.3823C68.385 44.1017 68.2167 43.9334 67.9361 43.9334C67.6556 43.9334 67.4872 44.1017 67.4872 44.4103C67.4872 44.6348 67.5995 44.8311 67.852 45.1678ZM76.0439 43.232C76.9977 43.232 77.8113 43.6809 78.2602 44.4103L77.643 44.8592C77.2783 44.2981 76.7452 43.9615 76.0719 43.9615C75.0059 43.9615 74.2203 44.775 74.2203 45.8692C74.2203 46.9633 75.0339 47.7769 76.0719 47.7769C76.7452 47.7769 77.2783 47.4683 77.643 46.8791L78.2602 47.328C77.8113 48.0574 76.9977 48.5063 76.0439 48.5063C74.585 48.5343 73.2945 47.328 73.3226 45.8411C73.2945 44.4103 74.585 43.204 76.0439 43.232ZM80.8973 44.5506C82.0195 44.5225 82.9453 45.4764 82.9453 46.5425C82.9733 47.6366 82.0195 48.5624 80.8973 48.5624C79.8032 48.5905 78.8493 47.6366 78.8774 46.5425C78.8493 45.4483 79.7751 44.5225 80.8973 44.5506ZM80.8973 45.28C80.224 45.28 79.691 45.8131 79.691 46.5425C79.691 47.2438 80.1959 47.7769 80.8693 47.7769C81.5426 47.7769 82.0756 47.2438 82.0756 46.5425C82.0756 45.8411 81.5706 45.28 80.8973 45.28ZM85.6385 44.5506C86.7607 44.5225 87.6865 45.4764 87.6865 46.5425C87.7146 47.6366 86.7607 48.5624 85.6385 48.5624C84.5444 48.5905 83.5905 47.6366 83.6186 46.5425C83.5905 45.4483 84.5444 44.5225 85.6385 44.5506ZM85.6385 45.28C84.9652 45.28 84.4322 45.8131 84.4322 46.5425C84.4322 47.2438 84.9372 47.7769 85.6105 47.7769C86.2838 47.7769 86.8168 47.2438 86.8168 46.5425C86.8449 45.8411 86.3118 45.28 85.6385 45.28ZM90.8006 45.3361H90.5481C89.9028 45.3361 89.4259 45.7289 89.4259 46.4022V48.4502H88.6123V44.6348H89.3698V45.1398C89.6503 44.8031 90.0431 44.6067 90.492 44.6067C90.6042 44.6067 90.7164 44.6348 90.8006 44.6348V45.3361ZM95.2051 42.6148V48.4782H94.4477V47.9452C94.1671 48.338 93.6621 48.5905 93.101 48.5905C92.035 48.5905 91.2214 47.7208 91.2214 46.5986C91.1933 45.4764 92.035 44.5787 93.101 44.5787C93.6341 44.5787 94.0829 44.775 94.3915 45.1398V42.6429H95.2051V42.6148ZM93.2413 45.28C92.5961 45.28 92.063 45.785 92.063 46.5144C92.063 47.2438 92.568 47.7769 93.2413 47.7769C93.8305 47.7769 94.3915 47.3561 94.3915 46.5425C94.3915 45.7289 93.8305 45.28 93.2413 45.28ZM96.8042 42.6429C97.1128 42.6429 97.3653 42.8954 97.3653 43.1759C97.3653 43.4845 97.1128 43.709 96.8042 43.709C96.4956 43.709 96.2431 43.4845 96.2431 43.1759C96.2431 42.8954 96.4956 42.6429 96.8042 42.6429ZM96.3834 44.6348H97.197V48.4782H96.3834V44.6348ZM101.742 48.4502H100.928V46.1497C100.928 45.6167 100.592 45.252 100.087 45.252C99.5816 45.252 99.2169 45.6167 99.2169 46.1497V48.4502H98.4033V44.6348H99.1608V44.9995C99.4414 44.6909 99.8341 44.5506 100.311 44.5506C101.209 44.5506 101.742 45.1678 101.742 46.0656V48.4502ZM105.922 48.4502H105.164V48.0294C104.884 48.366 104.463 48.5343 103.93 48.5343C103.117 48.5343 102.583 48.0855 102.583 47.4122C102.583 46.7389 103.117 46.318 103.986 46.318H105.08V46.0656C105.08 45.5325 104.772 45.252 104.267 45.252C103.846 45.252 103.537 45.4483 103.201 45.8131L102.724 45.3361C103.117 44.775 103.678 44.5226 104.351 44.5226C105.305 44.5226 105.922 45.0836 105.922 46.1217V48.4502ZM105.08 46.9352H104.098C103.65 46.9352 103.425 47.1036 103.425 47.4122C103.425 47.7208 103.706 47.9171 104.098 47.9171C104.66 47.9171 105.08 47.5244 105.08 47.0194V46.9352ZM109.345 48.4502C109.092 48.5063 108.868 48.5343 108.671 48.5343C107.802 48.5343 107.269 48.0855 107.269 47.1877V45.3081H106.651V44.6348H107.269V43.6248H108.082V44.6348H109.232V45.3361H108.082V47.1316C108.082 47.6366 108.335 47.8049 108.84 47.8049C108.952 47.8049 109.12 47.7769 109.345 47.7769V48.4502ZM110.579 42.6429C110.888 42.6429 111.14 42.8954 111.14 43.1759C111.14 43.4845 110.888 43.709 110.579 43.709C110.27 43.709 110.018 43.4845 110.018 43.1759C110.018 42.8954 110.27 42.6429 110.579 42.6429ZM110.158 44.6348H110.972V48.4782H110.158V44.6348ZM113.946 44.5506C115.068 44.5225 115.994 45.4764 115.994 46.5425C116.022 47.6366 115.068 48.5624 113.946 48.5624C112.851 48.5905 111.898 47.6366 111.926 46.5425C111.898 45.4483 112.851 44.5225 113.946 44.5506ZM113.946 45.28C113.272 45.28 112.739 45.8131 112.739 46.5425C112.739 47.2438 113.244 47.7769 113.917 47.7769C114.591 47.7769 115.124 47.2438 115.124 46.5425C115.152 45.8411 114.619 45.28 113.946 45.28ZM120.258 48.4502H119.444V46.1497C119.444 45.6167 119.108 45.252 118.603 45.252C118.098 45.252 117.733 45.6167 117.733 46.1497V48.4502H116.919V44.6348H117.677V44.9995C117.957 44.6909 118.35 44.5506 118.827 44.5506C119.725 44.5506 120.258 45.1678 120.258 46.0656V48.4502ZM126.346 47.6086H124.017L123.652 48.4782H122.783L125.055 43.232H125.336L127.608 48.4782H126.71L126.346 47.6086ZM125.195 44.747L124.326 46.8791H126.037L125.195 44.747ZM132.013 44.6348V48.0574C132.013 49.2638 131.255 49.9371 130.105 49.9371C129.347 49.9371 128.73 49.6285 128.253 49.2077L128.702 48.6466C129.123 48.9832 129.516 49.1796 130.049 49.1796C130.75 49.1796 131.199 48.8149 131.199 48.0855V47.8049C130.919 48.1696 130.442 48.338 129.909 48.338C128.843 48.338 128.057 47.5244 128.057 46.4303C128.057 45.3361 128.871 44.5226 129.909 44.5226C130.498 44.5226 130.975 44.747 131.255 45.1678V44.6348H132.013ZM130.021 45.28C129.684 45.28 129.404 45.3922 129.179 45.6167C128.955 45.8411 128.843 46.1217 128.843 46.4864C128.843 46.8511 128.955 47.1316 129.179 47.3561C129.404 47.5805 129.684 47.6927 130.021 47.6927C130.329 47.6927 130.61 47.5805 130.834 47.3841C131.059 47.1597 131.171 46.8791 131.171 46.4864C131.199 45.6728 130.666 45.28 130.021 45.28ZM133.78 46.823C133.892 47.4402 134.369 47.833 135.043 47.833C135.435 47.833 135.828 47.6927 136.165 47.3841L136.558 47.9452C136.109 48.366 135.604 48.5624 135.015 48.5624C133.836 48.5624 132.967 47.6927 132.967 46.5705C132.938 45.4764 133.864 44.5506 134.958 44.5506C135.968 44.5506 136.726 45.3081 136.726 46.318C136.726 46.4864 136.698 46.6547 136.67 46.823H133.78ZM135.884 46.1778C135.884 45.5886 135.435 45.252 134.902 45.252C134.369 45.252 133.92 45.6167 133.808 46.1778H135.884ZM140.99 48.4502H140.177V46.1497C140.177 45.6167 139.84 45.252 139.335 45.252C138.83 45.252 138.465 45.6167 138.465 46.1497V48.4502H137.652V44.6348H138.409V44.9995C138.69 44.6909 139.082 44.5506 139.559 44.5506C140.457 44.5506 140.99 45.1678 140.99 46.0656V48.4502ZM143.908 44.5506C144.609 44.5506 145.198 44.8873 145.535 45.4483L144.946 45.8972C144.665 45.5045 144.329 45.3081 143.908 45.3081C143.234 45.3081 142.701 45.8411 142.701 46.5425C142.701 47.2438 143.206 47.8049 143.908 47.8049C144.301 47.8049 144.665 47.6085 144.946 47.2158L145.535 47.6647C145.198 48.2257 144.609 48.5624 143.908 48.5624C142.786 48.5624 141.888 47.6647 141.888 46.5425C141.86 45.4483 142.814 44.5225 143.908 44.5506ZM149.968 44.6348L148.116 48.8991C147.807 49.6285 147.359 49.9651 146.713 49.9651C146.489 49.9651 146.292 49.9371 146.068 49.881V49.1796C146.32 49.2077 146.461 49.2077 146.517 49.2077C146.91 49.2077 147.162 49.0674 147.359 48.6466L147.527 48.2819L145.984 44.6348H146.854L147.948 47.4122L149.07 44.6348H149.968ZM66.7298 3.47876V25.2491H71.8076V0.476927L66.7298 3.47876Z" fill="#2F323A"/>
    <path d="M50 28.2895V21.7105H46.6283C46.3816 20.0658 45.9704 18.5033 45.3947 17.023L48.3553 15.2961L45.0658 9.62171L42.1053 11.3487C41.1184 10.1151 39.9671 8.96382 38.7336 7.97697L40.4605 5.01645L34.7862 1.72697L33.0592 4.6875C31.5789 4.11184 30.0164 3.70066 28.3717 3.45395V0H21.7928V3.37171C20.148 3.61842 18.5855 4.0296 17.1053 4.60526L15.3783 1.64474L9.70395 4.93421L11.4309 7.89474C10.1974 8.88158 9.04605 10.0329 8.05921 11.2664L5.09868 9.53947L1.80921 15.2138L4.76974 16.9408C4.19408 18.4211 3.7829 19.9836 3.53618 21.6283H0V28.2072H3.37171C3.61842 29.852 4.02961 31.4145 4.60526 32.8947L1.64474 34.6217L4.93421 40.2961L7.89474 38.6513C8.88158 39.8849 10.0329 41.0362 11.3487 42.023L9.62171 44.9836L15.2961 48.273L17.023 45.3125C18.5033 45.8882 20.0658 46.2993 21.7105 46.5461V49.9178H28.2895V46.5461C29.9342 46.2993 31.4967 45.8882 32.977 45.3125L34.7039 48.273L40.3783 44.9836L38.6513 42.1053C39.8849 41.1184 41.0362 39.9671 42.023 38.6513L44.9836 40.3783L48.273 34.7039L45.3125 32.977C45.8882 31.4967 46.2993 29.9342 46.5461 28.2895H50Z" fill="url(#paint5_radial)"/>
    <path d="M24.9998 45.2301V4.76953V45.2301ZM12.2531 40.707H37.7465H12.2531ZM6.66098 33.4702H43.3386H6.66098ZM4.76953 24.9998H45.0656H4.76953ZM6.66098 16.5294H43.5031H6.66098ZM12.2531 9.29256H37.7465H12.2531ZM35.6906 24.9998C35.6906 36.184 30.9208 45.2301 24.9998 45.2301C19.0787 45.2301 14.309 36.184 14.309 24.9998C14.309 13.8156 19.0787 4.76953 24.9998 4.76953C30.9208 4.76953 35.6906 13.8156 35.6906 24.9998ZM29.7695 24.9998C29.7695 36.184 27.6314 45.2301 24.9998 45.2301C22.3682 45.2301 20.2301 36.184 20.2301 24.9998C20.2301 13.8156 22.3682 4.76953 24.9998 4.76953C27.6314 4.76953 29.7695 13.8156 29.7695 24.9998ZM41.1182 24.9998C41.1182 36.184 33.9636 45.2301 24.9998 45.2301C16.1182 45.2301 8.88137 36.184 8.88137 24.9998C8.88137 13.8156 16.1182 4.76953 24.9998 4.76953C33.9636 4.76953 41.1182 13.8156 41.1182 24.9998ZM45.2301 24.9998C45.2301 36.184 36.184 45.2301 24.9998 45.2301C13.8156 45.2301 4.76953 36.184 4.76953 24.9998C4.76953 13.8156 13.8156 4.76953 24.9998 4.76953C36.184 4.76953 45.2301 13.8156 45.2301 24.9998Z" stroke="white" stroke-width="0.26" stroke-miterlimit="10"/>
    <path d="M25.0002 10.4443L10.8555 35.2799H39.2272L25.0002 10.4443Z" fill="#1D71B8"/>
    <defs>
        <radialGradient id="paint5_radial" cx="0" cy="0" r="1" gradientUnits="userSpaceOnUse" gradientTransform="translate(25.0111 25.0104) scale(25.0108)">
            <stop stop-color="#F59C23"/>
            <stop offset="1" stop-color="#EA5533"/>
        </radialGradient>
    </defs>
</svg>
