<svg width="26" height="29" viewBox="0 0 26 29" fill="none" xmlns="http://www.w3.org/2000/svg"><path d="M6.4 13.2l.7-8.1c.1-1 .7-1.7 1.8-1.7h4M12.8 6H12M10.4 6l-1.5.3M10.5 13.6l1-.7" stroke="#F96430" stroke-width="1.6" stroke-miterlimit="10"/><path d="M19.3 13.2l-.7-8.1c-.1-1-.7-1.7-1.8-1.7h-4M12.8 6h.9M15.3 6l1.5.3M15.1 13.6l-.9-.7M19.9 23.2l3.1-6c.2-.4.1-1-.3-1.3l-8-6c-1.1-.8-2.7-.8-3.8 0l-8 6c-.4.3-.5.8-.3 1.3l3.1 6M14.7 3.4V1.5M11.8 3.4V0" stroke="#F96430" stroke-width="1.6" stroke-miterlimit="10"/><path d="M0 23.1c1.6 0 1.6 1.5 3.2 1.5s1.6-1.5 3.2-1.5 1.6 1.5 3.2 1.5 1.6-1.5 3.2-1.5 1.6 1.5 3.2 1.5 1.6-1.5 3.2-1.5 1.6 1.5 3.2 1.5 1.6-1.5 3.2-1.5M0 26.5c1.6 0 1.6 1.5 3.2 1.5s1.6-1.5 3.2-1.5S8 28 9.6 28s1.6-1.5 3.2-1.5S14.4 28 16 28s1.6-1.5 3.2-1.5 1.6 1.5 3.2 1.5 1.6-1.5 3.2-1.5" stroke="#F96430" stroke-width="1.6" stroke-miterlimit="10"/></svg>
