<svg width="36" height="30" viewBox="0 0 36 30" fill="none" xmlns="http://www.w3.org/2000/svg"><path d="M34.996 5.5L34.795 26c0 1.6-1.413 3-3.027 3H4.026C2.412 29 1 27.7 1 26V4c0-1.6 1.311-3 3.026-3h27.742c1.312 0 3.33.4 3.228 2.9v1.6zM16.132 26.2h3.732M1.504 23.5h33.089" stroke="#F96430" stroke-width="1.6" stroke-miterlimit="10"/><path d="M24.404 20.9l-6.355-3.5-6.457 3.5L18.05 7.5l6.355 13.4zM18.049 6.2l16.847 4.3M2.311 2.5L18.05 6.2M18.049 1v6M18.049 17.4v6M1 15.5L7.96 4.4M32.474 22.9L27.33 1" stroke="#F96430" stroke-width="1.6" stroke-miterlimit="10"/></svg>
