<svg width="14" height="12" viewBox="0 0 14 12" fill="none" xmlns="http://www.w3.org/2000/svg">
<path d="M12.6 2.99993C12.6 3.14993 12.6 3.22493 12.6 3.37493C12.6 7.34984 9.66 11.9997 4.41 11.9997C2.8 11.9997 1.26 11.4747 0 10.6498C0.21 10.6498 0.42 10.7248 0.7 10.7248C2.03 10.7248 3.29 10.2748 4.27 9.44979C3.01 9.44979 1.96 8.54981 1.61 7.34984C1.82 7.34984 1.96 7.42484 2.17 7.42484C2.45 7.42484 2.66 7.42484 2.94 7.34984C1.61 7.04985 0.63 5.84987 0.63 4.34991C0.63 4.34991 0.63 4.34991 0.63 4.27491C0.98 4.4249 1.4 4.5749 1.89 4.5749C1.12 4.04991 0.63 3.07493 0.63 2.02496C0.63 1.49997 0.77 0.974979 1.05 0.524989C2.45 2.32495 4.55 3.59992 7 3.67492C6.86 3.52492 6.79 3.29993 6.79 2.99993C6.79 1.34997 8.05 0 9.66 0C10.5 0 11.2 0.374992 11.76 0.974979C12.39 0.824982 13.02 0.599987 13.58 0.224995C13.37 0.89998 12.88 1.49997 12.32 1.87496C12.88 1.79996 13.44 1.64996 14 1.42497C13.58 2.02496 13.16 2.54994 12.6 2.99993Z" fill="#52545A"/>
</svg>
