<svg width="16" height="13" viewBox="0 0 16 13" fill="none" xmlns="http://www.w3.org/2000/svg"><path d="M13.76 3.32v.375c0 3.975-3.024 8.625-8.424 8.625-1.656 0-3.24-.525-4.536-1.35.216 0 .432.075.72.075 1.368 0 2.664-.45 3.672-1.275-1.296 0-2.376-.9-2.736-2.1.216 0 .36.075.576.075.288 0 .504 0 .792-.075-1.368-.3-2.376-1.5-2.376-3v-.075c.36.15.792.3 1.296.3-.792-.525-1.296-1.5-1.296-2.55 0-.525.144-1.05.432-1.5 1.44 1.8 3.6 3.075 6.12 3.15-.144-.15-.216-.375-.216-.675 0-1.65 1.296-3 2.952-3 .864 0 1.584.375 2.16.975.648-.15 1.296-.375 1.872-.75-.216.675-.72 1.275-1.296 1.65a7.347 7.347 0 001.728-.45c-.432.6-.864 1.125-1.44 1.575z" fill="#EBEAED"/></svg>
