<svg width="35" height="45" viewBox="0 0 35 45" fill="none" xmlns="http://www.w3.org/2000/svg"><path d="M25.555 44.215v-7.268H7.86v7.268M10.941 10.037v-3.34M6.567 10.036V8.17M6.567 8.17c.299-.883 1.094-1.473 2.088-1.473s1.79.59 2.088 1.473M19.392 25.456l6.66-7.661c.597-1.08 1.99-1.375 3.083-.786 1.093.59 1.391 1.965.795 3.045 0 0-4.573 16.893-8.45 16.893h-7.954c-4.573 0-6.561-5.795-6.959-11.982M15.415 10.036V3.16c0-1.179.994-2.161 2.187-2.161 1.193 0 2.187.982 2.187 2.16v3.144c.1-1.08 1.094-1.965 2.187-1.965 1.193 0 2.188.982 2.188 2.161v3.536" stroke="#F96430" stroke-width="1.6" stroke-miterlimit="10"/><path d="M10.941 6.698c0-1.179.995-2.16 2.188-2.16s2.286.981 2.286 2.258M19.889 6.305v3.732M19.79 24.966H1V10.037h32.41v14.929h-5.07" stroke="#F96430" stroke-width="1.6" stroke-miterlimit="10"/><path d="M17.205 20.349c1.592 0 2.883-1.275 2.883-2.848 0-1.574-1.29-2.849-2.883-2.849-1.592 0-2.883 1.276-2.883 2.849 0 1.573 1.29 2.848 2.883 2.848zM28.737 14.652h-4.573" stroke="#F96430" stroke-width="1.6" stroke-miterlimit="10"/></svg>
