<svg width="43" height="45" viewBox="0 0 43 45" fill="none" xmlns="http://www.w3.org/2000/svg"><path d="M41.362 2.833a1.83 1.83 0 10-3.66 0c0 .965.867 1.834 1.83 1.834a1.83 1.83 0 001.83-1.834zM41.362 22.228a1.83 1.83 0 10-3.66 0c0 .965.867 1.833 1.83 1.833a1.83 1.83 0 001.83-1.833zM22.963 22.228a1.83 1.83 0 10-3.66 0c0 .965.867 1.833 1.83 1.833 1.06 0 1.83-.771 1.83-1.833zM41.362 41.623a1.83 1.83 0 10-3.66 0 1.83 1.83 0 001.83 1.833c.964 0 1.83-.868 1.83-1.833zM22.963 41.623a1.83 1.83 0 10-3.66 0 1.83 1.83 0 103.66 0z" stroke="#F96430" stroke-width="1.6" stroke-miterlimit="10" stroke-linecap="round" stroke-linejoin="round"/><path d="M21.133 20.395C21.326 15.667 25.275 12 30.092 12h2.119c4.046 0 7.321-3.28 7.321-7.237M4.66 41.623a1.83 1.83 0 10-3.66 0 1.83 1.83 0 001.83 1.833c.964 0 1.83-.868 1.83-1.833z" stroke="#F96430" stroke-width="1.6" stroke-miterlimit="10" stroke-linecap="round" stroke-linejoin="round"/><path d="M2.734 39.79c.193-4.728 4.142-8.395 8.959-8.395h2.119c4.046 0 7.321-3.28 7.321-7.237" stroke="#F96430" stroke-width="1.6" stroke-miterlimit="10" stroke-linecap="round" stroke-linejoin="round"/></svg>
