<svg width="57" height="44" viewBox="0 0 57 44" fill="none" xmlns="http://www.w3.org/2000/svg"><path d="M40.27 33.393l-4.909-4.813M35.361 33.393l4.91-4.813" stroke="#F96430" stroke-width="1.6"/><path d="M9.415 16.107h.601c1.803 0 3.306 1.473 3.306 3.241v19.25c0 2.357 1.903 4.42 4.308 4.518 2.604.098 4.708-1.866 4.708-4.42V10.804c0-2.75 2.204-4.911 5.01-4.911 2.804 0 5.008 2.16 5.008 4.91V31.92c0 2.946 2.505 5.401 5.51 5.401s5.51-2.455 5.51-5.401v-4.027c0-2.357 2.003-4.322 4.408-4.322" stroke="#F96430" stroke-width="1.6" stroke-dasharray="1.32 1.32"/><path d="M27.4 9.674l-2.124 2.084 2.055 2.013 2.125-2.083L27.4 9.674zM1 19.643l6.311-3.438L1 12.768v6.875zM19.333 38.5c0-.786-.701-1.473-1.503-1.473-.801 0-1.503.687-1.503 1.473s.702 1.473 1.503 1.473c.802 0 1.503-.687 1.503-1.473zM55.397 23.571c0-1.67-1.302-2.946-3.005-2.946-1.703 0-3.006 1.277-3.006 2.946 0 1.67 1.303 2.947 3.006 2.947 1.603 0 3.005-1.277 3.005-2.947zM52.392 20.625V0M41.372 9.821h11.02V1.964h-11.02l3.005 3.929-3.005 3.928z" stroke="#F96430" stroke-width="1.6"/></svg>
