<svg width="46" height="46" viewBox="0 0 46 46" fill="none" xmlns="http://www.w3.org/2000/svg"><path d="M45 23.025C45 10.342 34.318.156 21.44 1.055c-10.783.8-19.569 9.487-20.367 20.272-.5 6.291 1.597 11.983 5.39 16.277 1 1.199 2.896.5 2.896-1.098v-2.397c0-2.496 1.697-4.693 4.193-5.093 3.095-.499 5.79 1.898 5.79 4.894v8.388c0 1.398 1.099 2.596 2.596 2.696h.2c1.497.1 2.795-1.098 2.795-2.696v-13.98c0-2.497 1.697-4.694 4.193-5.094 3.095-.499 5.79 1.898 5.79 4.894v10.086c0 1.398 1.698 2.197 2.796 1.298A22.29 22.29 0 0045 23.025z" stroke="#F96430" stroke-width="1.6" stroke-miterlimit="10"/><path d="M17.598 21.395a3.295 3.295 0 10-6.414-1.514 3.295 3.295 0 006.414 1.514zM33.093 15.68a3.295 3.295 0 10-6.414-1.514 3.295 3.295 0 006.414 1.514z" stroke="#F96430" stroke-width="1.6" stroke-miterlimit="10"/></svg>
