<svg width="35" height="45" viewBox="0 0 35 45" fill="none" xmlns="http://www.w3.org/2000/svg"><path d="M33.381 4.28V3.22c-.708-.194-1.316-.387-2.024-.483C27.512 1.675 23.566 1.193 19.517 1c-.809 0-1.618 9.36-2.326 9.36-.81 0-1.62-9.36-2.328-9.36-4.047.193-7.994.675-11.84 1.64-.708.193-1.315.386-2.023.483v28.079c0 .386.101.675.304.965 3.946 5.307 9.005 9.07 15.28 11 .1 0 .505.29.607.29.1 0 .505-.194.607-.29 6.375-2.027 11.333-5.693 15.28-11 .202-.29.303-.58.303-.965V4.28z" stroke="#F96430" stroke-width="1.6" stroke-miterlimit="10"/><path d="M23.768 17.404l-7.893 9.649-5.262-5.018" stroke="#F96430" stroke-width="1.6" stroke-miterlimit="10"/></svg>
